<mxfile host="65bd71144e" pages="3">
    <diagram id="tAm-Q1vrKD3kaD52ELMw" name="structure">
        <mxGraphModel dx="2152" dy="1218" grid="1" gridSize="10" guides="1" tooltips="1" connect="1" arrows="1" fold="1" page="1" pageScale="1" pageWidth="850" pageHeight="1100" math="0" shadow="0">
            <root>
                <mxCell id="zu2tDFOteG_yooguGcxT-0"/>
                <mxCell id="zu2tDFOteG_yooguGcxT-1" parent="zu2tDFOteG_yooguGcxT-0"/>
                <mxCell id="zu2tDFOteG_yooguGcxT-224" style="edgeStyle=orthogonalEdgeStyle;orthogonalLoop=1;jettySize=auto;html=1;entryX=1;entryY=0.5;entryDx=0;entryDy=0;curved=1;" parent="zu2tDFOteG_yooguGcxT-1" edge="1">
                    <mxGeometry relative="1" as="geometry">
                        <mxPoint x="1100" y="-211" as="targetPoint"/>
                    </mxGeometry>
                </mxCell>
                <mxCell id="zu2tDFOteG_yooguGcxT-143" value="users" style="swimlane;fontStyle=0;childLayout=stackLayout;horizontal=1;startSize=26;fillColor=#f5f5f5;horizontalStack=0;resizeParent=1;resizeParentMax=0;resizeLast=0;collapsible=1;marginBottom=0;swimlaneFillColor=#ffffff;align=center;fontSize=14;strokeColor=#666666;fontColor=#333333;rounded=1;" parent="zu2tDFOteG_yooguGcxT-1" vertex="1">
                    <mxGeometry x="10" y="-550" width="162" height="238" as="geometry"/>
                </mxCell>
                <mxCell id="zu2tDFOteG_yooguGcxT-144" value="id" style="shape=partialRectangle;top=0;left=0;right=0;bottom=1;align=left;verticalAlign=middle;fillColor=#f5f5f5;spacingLeft=34;spacingRight=4;overflow=hidden;rotatable=0;points=[[0,0.5],[1,0.5]];portConstraint=eastwest;dropTarget=0;fontStyle=5;fontSize=12;fontColor=#333333;strokeColor=#666666;rounded=1;" parent="zu2tDFOteG_yooguGcxT-143" vertex="1">
                    <mxGeometry y="26" width="162" height="30" as="geometry"/>
                </mxCell>
                <mxCell id="zu2tDFOteG_yooguGcxT-145" value="PK" style="shape=partialRectangle;top=0;left=0;bottom=0;fillColor=#f5f5f5;align=left;verticalAlign=middle;spacingLeft=4;spacingRight=4;overflow=hidden;rotatable=0;points=[];portConstraint=eastwest;part=1;fontSize=12;fontColor=#333333;strokeColor=#666666;rounded=1;" parent="zu2tDFOteG_yooguGcxT-144" vertex="1" connectable="0">
                    <mxGeometry width="30" height="30" as="geometry"/>
                </mxCell>
                <mxCell id="zu2tDFOteG_yooguGcxT-146" value="name" style="shape=partialRectangle;top=0;left=0;right=0;bottom=0;align=left;verticalAlign=top;fillColor=#f5f5f5;spacingLeft=34;spacingRight=4;overflow=hidden;rotatable=0;points=[[0,0.5],[1,0.5]];portConstraint=eastwest;dropTarget=0;fontSize=12;fontColor=#333333;strokeColor=#666666;rounded=1;" parent="zu2tDFOteG_yooguGcxT-143" vertex="1">
                    <mxGeometry y="56" width="162" height="26" as="geometry"/>
                </mxCell>
                <mxCell id="zu2tDFOteG_yooguGcxT-147" value="" style="shape=partialRectangle;top=0;left=0;bottom=0;fillColor=#f5f5f5;align=left;verticalAlign=top;spacingLeft=4;spacingRight=4;overflow=hidden;rotatable=0;points=[];portConstraint=eastwest;part=1;fontSize=12;fontColor=#333333;strokeColor=#666666;rounded=1;" parent="zu2tDFOteG_yooguGcxT-146" vertex="1" connectable="0">
                    <mxGeometry width="30" height="26" as="geometry"/>
                </mxCell>
                <mxCell id="zu2tDFOteG_yooguGcxT-390" value="email" style="shape=partialRectangle;top=0;left=0;right=0;bottom=0;align=left;verticalAlign=top;fillColor=#f5f5f5;spacingLeft=34;spacingRight=4;overflow=hidden;rotatable=0;points=[[0,0.5],[1,0.5]];portConstraint=eastwest;dropTarget=0;fontSize=12;fontColor=#333333;strokeColor=#666666;rounded=1;" parent="zu2tDFOteG_yooguGcxT-143" vertex="1">
                    <mxGeometry y="82" width="162" height="26" as="geometry"/>
                </mxCell>
                <mxCell id="zu2tDFOteG_yooguGcxT-391" value="" style="shape=partialRectangle;top=0;left=0;bottom=0;fillColor=#f5f5f5;align=left;verticalAlign=top;spacingLeft=4;spacingRight=4;overflow=hidden;rotatable=0;points=[];portConstraint=eastwest;part=1;fontSize=12;fontColor=#333333;strokeColor=#666666;rounded=1;" parent="zu2tDFOteG_yooguGcxT-390" vertex="1" connectable="0">
                    <mxGeometry width="30" height="26" as="geometry"/>
                </mxCell>
                <mxCell id="zu2tDFOteG_yooguGcxT-149" value="password" style="shape=partialRectangle;top=0;left=0;right=0;bottom=0;align=left;verticalAlign=top;fillColor=#f5f5f5;spacingLeft=34;spacingRight=4;overflow=hidden;rotatable=0;points=[[0,0.5],[1,0.5]];portConstraint=eastwest;dropTarget=0;fontSize=12;fontColor=#333333;strokeColor=#666666;rounded=1;" parent="zu2tDFOteG_yooguGcxT-143" vertex="1">
                    <mxGeometry y="108" width="162" height="26" as="geometry"/>
                </mxCell>
                <mxCell id="zu2tDFOteG_yooguGcxT-150" value="" style="shape=partialRectangle;top=0;left=0;bottom=0;fillColor=#f5f5f5;align=left;verticalAlign=top;spacingLeft=4;spacingRight=4;overflow=hidden;rotatable=0;points=[];portConstraint=eastwest;part=1;fontSize=12;fontColor=#333333;strokeColor=#666666;rounded=1;" parent="zu2tDFOteG_yooguGcxT-149" vertex="1" connectable="0">
                    <mxGeometry width="30" height="26" as="geometry"/>
                </mxCell>
                <mxCell id="zu2tDFOteG_yooguGcxT-151" value="date_of_birth" style="shape=partialRectangle;top=0;left=0;right=0;bottom=0;align=left;verticalAlign=top;fillColor=#f5f5f5;spacingLeft=34;spacingRight=4;overflow=hidden;rotatable=0;points=[[0,0.5],[1,0.5]];portConstraint=eastwest;dropTarget=0;fontSize=12;fontColor=#333333;strokeColor=#666666;rounded=1;" parent="zu2tDFOteG_yooguGcxT-143" vertex="1">
                    <mxGeometry y="134" width="162" height="26" as="geometry"/>
                </mxCell>
                <mxCell id="zu2tDFOteG_yooguGcxT-152" value="" style="shape=partialRectangle;top=0;left=0;bottom=0;fillColor=#f5f5f5;align=left;verticalAlign=top;spacingLeft=4;spacingRight=4;overflow=hidden;rotatable=0;points=[];portConstraint=eastwest;part=1;fontSize=12;fontColor=#333333;strokeColor=#666666;rounded=1;" parent="zu2tDFOteG_yooguGcxT-151" vertex="1" connectable="0">
                    <mxGeometry width="30" height="26" as="geometry"/>
                </mxCell>
                <mxCell id="zu2tDFOteG_yooguGcxT-157" value="status" style="shape=partialRectangle;top=0;left=0;right=0;bottom=0;align=left;verticalAlign=top;fillColor=#f5f5f5;spacingLeft=34;spacingRight=4;overflow=hidden;rotatable=0;points=[[0,0.5],[1,0.5]];portConstraint=eastwest;dropTarget=0;fontSize=12;fontColor=#333333;strokeColor=#666666;rounded=1;" parent="zu2tDFOteG_yooguGcxT-143" vertex="1">
                    <mxGeometry y="160" width="162" height="26" as="geometry"/>
                </mxCell>
                <mxCell id="zu2tDFOteG_yooguGcxT-158" value="enum" style="shape=partialRectangle;top=0;left=0;bottom=0;fillColor=#f5f5f5;align=left;verticalAlign=top;spacingLeft=4;spacingRight=4;overflow=hidden;rotatable=0;points=[];portConstraint=eastwest;part=1;fontSize=12;fontColor=#333333;strokeColor=#666666;rounded=1;" parent="zu2tDFOteG_yooguGcxT-157" vertex="1" connectable="0">
                    <mxGeometry width="30" height="26" as="geometry"/>
                </mxCell>
                <mxCell id="zu2tDFOteG_yooguGcxT-159" value="created_at" style="shape=partialRectangle;top=0;left=0;right=0;bottom=0;align=left;verticalAlign=top;fillColor=#f5f5f5;spacingLeft=34;spacingRight=4;overflow=hidden;rotatable=0;points=[[0,0.5],[1,0.5]];portConstraint=eastwest;dropTarget=0;fontSize=12;fontColor=#333333;strokeColor=#666666;rounded=1;" parent="zu2tDFOteG_yooguGcxT-143" vertex="1">
                    <mxGeometry y="186" width="162" height="26" as="geometry"/>
                </mxCell>
                <mxCell id="zu2tDFOteG_yooguGcxT-160" value="" style="shape=partialRectangle;top=0;left=0;bottom=0;fillColor=#f5f5f5;align=left;verticalAlign=top;spacingLeft=4;spacingRight=4;overflow=hidden;rotatable=0;points=[];portConstraint=eastwest;part=1;fontSize=12;fontColor=#333333;strokeColor=#666666;rounded=1;" parent="zu2tDFOteG_yooguGcxT-159" vertex="1" connectable="0">
                    <mxGeometry width="30" height="26" as="geometry"/>
                </mxCell>
                <mxCell id="zu2tDFOteG_yooguGcxT-161" value="updated_at" style="shape=partialRectangle;top=0;left=0;right=0;bottom=0;align=left;verticalAlign=top;fillColor=#f5f5f5;spacingLeft=34;spacingRight=4;overflow=hidden;rotatable=0;points=[[0,0.5],[1,0.5]];portConstraint=eastwest;dropTarget=0;fontSize=12;fontColor=#333333;strokeColor=#666666;rounded=1;" parent="zu2tDFOteG_yooguGcxT-143" vertex="1">
                    <mxGeometry y="212" width="162" height="26" as="geometry"/>
                </mxCell>
                <mxCell id="zu2tDFOteG_yooguGcxT-162" value="" style="shape=partialRectangle;top=0;left=0;bottom=0;fillColor=#f5f5f5;align=left;verticalAlign=top;spacingLeft=4;spacingRight=4;overflow=hidden;rotatable=0;points=[];portConstraint=eastwest;part=1;fontSize=12;fontColor=#333333;strokeColor=#666666;rounded=1;" parent="zu2tDFOteG_yooguGcxT-161" vertex="1" connectable="0">
                    <mxGeometry width="30" height="26" as="geometry"/>
                </mxCell>
                <mxCell id="zu2tDFOteG_yooguGcxT-387" style="edgeStyle=orthogonalEdgeStyle;orthogonalLoop=1;jettySize=auto;html=1;exitX=1;exitY=0.5;exitDx=0;exitDy=0;fillColor=#f5f5f5;strokeColor=#666666;curved=1;" parent="zu2tDFOteG_yooguGcxT-1" edge="1">
                    <mxGeometry relative="1" as="geometry">
                        <mxPoint x="1008.9999999999995" y="-202" as="targetPoint"/>
                    </mxGeometry>
                </mxCell>
                <mxCell id="zu2tDFOteG_yooguGcxT-388" style="edgeStyle=orthogonalEdgeStyle;orthogonalLoop=1;jettySize=auto;html=1;fillColor=#f5f5f5;strokeColor=#666666;curved=1;" parent="zu2tDFOteG_yooguGcxT-1" edge="1">
                    <mxGeometry relative="1" as="geometry">
                        <mxPoint x="1008.9999999999995" y="-228" as="targetPoint"/>
                    </mxGeometry>
                </mxCell>
                <mxCell id="zu2tDFOteG_yooguGcxT-389" style="edgeStyle=orthogonalEdgeStyle;orthogonalLoop=1;jettySize=auto;html=1;fillColor=#f5f5f5;strokeColor=#666666;curved=1;" parent="zu2tDFOteG_yooguGcxT-1" edge="1">
                    <mxGeometry relative="1" as="geometry">
                        <mxPoint x="1008.9999999999995" y="-322" as="targetPoint"/>
                    </mxGeometry>
                </mxCell>
                <mxCell id="2okqT7mB05Z5zsRSW3fy-192" style="edgeStyle=orthogonalEdgeStyle;orthogonalLoop=1;jettySize=auto;html=1;shadow=1;curved=1;" parent="zu2tDFOteG_yooguGcxT-1" source="89" target="64" edge="1">
                    <mxGeometry relative="1" as="geometry"/>
                </mxCell>
                <mxCell id="2okqT7mB05Z5zsRSW3fy-193" style="edgeStyle=orthogonalEdgeStyle;orthogonalLoop=1;jettySize=auto;html=1;entryX=0;entryY=0.5;entryDx=0;entryDy=0;shadow=1;curved=1;" parent="zu2tDFOteG_yooguGcxT-1" source="89" target="69" edge="1">
                    <mxGeometry relative="1" as="geometry"/>
                </mxCell>
                <mxCell id="2okqT7mB05Z5zsRSW3fy-194" style="edgeStyle=orthogonalEdgeStyle;orthogonalLoop=1;jettySize=auto;html=1;shadow=1;curved=1;" parent="zu2tDFOteG_yooguGcxT-1" source="74" target="71" edge="1">
                    <mxGeometry relative="1" as="geometry"/>
                </mxCell>
                <mxCell id="61" value="model_has_role" style="swimlane;fontStyle=0;childLayout=stackLayout;horizontal=1;startSize=26;fillColor=#f5f5f5;horizontalStack=0;resizeParent=1;resizeParentMax=0;resizeLast=0;collapsible=1;marginBottom=0;swimlaneFillColor=#ffffff;align=center;fontSize=14;fontColor=#333333;strokeColor=#666666;rounded=1;" parent="zu2tDFOteG_yooguGcxT-1" vertex="1">
                    <mxGeometry x="399" y="-1086.5" width="162" height="182" as="geometry"/>
                </mxCell>
                <mxCell id="62" value="model_id" style="shape=partialRectangle;top=0;left=0;right=0;bottom=0;align=left;verticalAlign=top;fillColor=#f5f5f5;spacingLeft=34;spacingRight=4;overflow=hidden;rotatable=0;points=[[0,0.5],[1,0.5]];portConstraint=eastwest;dropTarget=0;fontSize=12;fontColor=#333333;strokeColor=#666666;rounded=1;" parent="61" vertex="1">
                    <mxGeometry y="26" width="162" height="26" as="geometry"/>
                </mxCell>
                <mxCell id="63" value="FK" style="shape=partialRectangle;top=0;left=0;bottom=0;fillColor=#f5f5f5;align=left;verticalAlign=top;spacingLeft=4;spacingRight=4;overflow=hidden;rotatable=0;points=[];portConstraint=eastwest;part=1;fontSize=12;fontColor=#333333;strokeColor=#666666;rounded=1;" parent="62" vertex="1" connectable="0">
                    <mxGeometry width="30" height="26" as="geometry"/>
                </mxCell>
                <mxCell id="64" value="role_id" style="shape=partialRectangle;top=0;left=0;right=0;bottom=0;align=left;verticalAlign=top;fillColor=#f5f5f5;spacingLeft=34;spacingRight=4;overflow=hidden;rotatable=0;points=[[0,0.5],[1,0.5]];portConstraint=eastwest;dropTarget=0;fontSize=12;fontColor=#333333;strokeColor=#666666;rounded=1;" parent="61" vertex="1">
                    <mxGeometry y="52" width="162" height="26" as="geometry"/>
                </mxCell>
                <mxCell id="65" value="FK" style="shape=partialRectangle;top=0;left=0;bottom=0;fillColor=#f5f5f5;align=left;verticalAlign=top;spacingLeft=4;spacingRight=4;overflow=hidden;rotatable=0;points=[];portConstraint=eastwest;part=1;fontSize=12;fontColor=#333333;strokeColor=#666666;rounded=1;" parent="64" vertex="1" connectable="0">
                    <mxGeometry width="30" height="26" as="geometry"/>
                </mxCell>
                <mxCell id="66" value="model_type" style="shape=partialRectangle;top=0;left=0;right=0;bottom=0;align=left;verticalAlign=top;fillColor=#f5f5f5;spacingLeft=34;spacingRight=4;overflow=hidden;rotatable=0;points=[[0,0.5],[1,0.5]];portConstraint=eastwest;dropTarget=0;fontSize=12;fontColor=#333333;strokeColor=#666666;rounded=1;" parent="61" vertex="1">
                    <mxGeometry y="78" width="162" height="26" as="geometry"/>
                </mxCell>
                <mxCell id="67" value="" style="shape=partialRectangle;top=0;left=0;bottom=0;fillColor=#f5f5f5;align=left;verticalAlign=top;spacingLeft=4;spacingRight=4;overflow=hidden;rotatable=0;points=[];portConstraint=eastwest;part=1;fontSize=12;fontColor=#333333;strokeColor=#666666;rounded=1;" parent="66" vertex="1" connectable="0">
                    <mxGeometry width="30" height="26" as="geometry"/>
                </mxCell>
                <mxCell id="68" value="permission_has_role" style="swimlane;fontStyle=0;childLayout=stackLayout;horizontal=1;startSize=26;fillColor=#f5f5f5;horizontalStack=0;resizeParent=1;resizeParentMax=0;resizeLast=0;collapsible=1;marginBottom=0;swimlaneFillColor=#ffffff;align=center;fontSize=14;fontColor=#333333;strokeColor=#666666;rounded=1;" parent="61" vertex="1">
                    <mxGeometry y="104" width="162" height="78" as="geometry"/>
                </mxCell>
                <mxCell id="69" value="role_id" style="shape=partialRectangle;top=0;left=0;right=0;bottom=0;align=left;verticalAlign=top;fillColor=#f5f5f5;spacingLeft=34;spacingRight=4;overflow=hidden;rotatable=0;points=[[0,0.5],[1,0.5]];portConstraint=eastwest;dropTarget=0;fontSize=12;fontColor=#333333;strokeColor=#666666;rounded=1;" parent="68" vertex="1">
                    <mxGeometry y="26" width="162" height="26" as="geometry"/>
                </mxCell>
                <mxCell id="70" value="PK" style="shape=partialRectangle;top=0;left=0;bottom=0;fillColor=#f5f5f5;align=left;verticalAlign=top;spacingLeft=4;spacingRight=4;overflow=hidden;rotatable=0;points=[];portConstraint=eastwest;part=1;fontSize=12;fontColor=#333333;strokeColor=#666666;rounded=1;" parent="69" vertex="1" connectable="0">
                    <mxGeometry width="30" height="26" as="geometry"/>
                </mxCell>
                <mxCell id="71" value="permission_id" style="shape=partialRectangle;top=0;left=0;right=0;bottom=0;align=left;verticalAlign=top;fillColor=#f5f5f5;spacingLeft=34;spacingRight=4;overflow=hidden;rotatable=0;points=[[0,0.5],[1,0.5]];portConstraint=eastwest;dropTarget=0;fontSize=12;fontColor=#333333;strokeColor=#666666;rounded=1;" parent="68" vertex="1">
                    <mxGeometry y="52" width="162" height="26" as="geometry"/>
                </mxCell>
                <mxCell id="72" value="PK" style="shape=partialRectangle;top=0;left=0;bottom=0;fillColor=#f5f5f5;align=left;verticalAlign=top;spacingLeft=4;spacingRight=4;overflow=hidden;rotatable=0;points=[];portConstraint=eastwest;part=1;fontSize=12;fontColor=#333333;strokeColor=#666666;rounded=1;" parent="71" vertex="1" connectable="0">
                    <mxGeometry width="30" height="26" as="geometry"/>
                </mxCell>
                <mxCell id="88" value="roles" style="swimlane;fontStyle=0;childLayout=stackLayout;horizontal=1;startSize=26;fillColor=#f5f5f5;horizontalStack=0;resizeParent=1;resizeParentMax=0;resizeLast=0;collapsible=1;marginBottom=0;swimlaneFillColor=#ffffff;align=center;fontSize=14;fontColor=#333333;strokeColor=#666666;rounded=1;" parent="zu2tDFOteG_yooguGcxT-1" vertex="1">
                    <mxGeometry x="180" y="-1100" width="160" height="294" as="geometry"/>
                </mxCell>
                <mxCell id="89" value="id" style="shape=partialRectangle;top=0;left=0;right=0;bottom=1;align=left;verticalAlign=middle;fillColor=#f5f5f5;spacingLeft=34;spacingRight=4;overflow=hidden;rotatable=0;points=[[0,0.5],[1,0.5]];portConstraint=eastwest;dropTarget=0;fontStyle=5;fontSize=12;fontColor=#333333;strokeColor=#666666;rounded=1;" parent="88" vertex="1">
                    <mxGeometry y="26" width="160" height="30" as="geometry"/>
                </mxCell>
                <mxCell id="90" value="PK" style="shape=partialRectangle;top=0;left=0;bottom=0;fillColor=#f5f5f5;align=left;verticalAlign=middle;spacingLeft=4;spacingRight=4;overflow=hidden;rotatable=0;points=[];portConstraint=eastwest;part=1;fontSize=12;fontColor=#333333;strokeColor=#666666;rounded=1;" parent="89" vertex="1" connectable="0">
                    <mxGeometry width="30" height="30" as="geometry"/>
                </mxCell>
                <mxCell id="91" value="name" style="shape=partialRectangle;top=0;left=0;right=0;bottom=0;align=left;verticalAlign=top;fillColor=#f5f5f5;spacingLeft=34;spacingRight=4;overflow=hidden;rotatable=0;points=[[0,0.5],[1,0.5]];portConstraint=eastwest;dropTarget=0;fontSize=12;fontColor=#333333;strokeColor=#666666;rounded=1;" parent="88" vertex="1">
                    <mxGeometry y="56" width="160" height="26" as="geometry"/>
                </mxCell>
                <mxCell id="92" value="" style="shape=partialRectangle;top=0;left=0;bottom=0;fillColor=#f5f5f5;align=left;verticalAlign=top;spacingLeft=4;spacingRight=4;overflow=hidden;rotatable=0;points=[];portConstraint=eastwest;part=1;fontSize=12;fontColor=#333333;strokeColor=#666666;rounded=1;" parent="91" vertex="1" connectable="0">
                    <mxGeometry width="30" height="26" as="geometry"/>
                </mxCell>
                <mxCell id="93" value="guard_type" style="shape=partialRectangle;top=0;left=0;right=0;bottom=0;align=left;verticalAlign=top;fillColor=#f5f5f5;spacingLeft=34;spacingRight=4;overflow=hidden;rotatable=0;points=[[0,0.5],[1,0.5]];portConstraint=eastwest;dropTarget=0;fontSize=12;fontColor=#333333;strokeColor=#666666;rounded=1;" parent="88" vertex="1">
                    <mxGeometry y="82" width="160" height="26" as="geometry"/>
                </mxCell>
                <mxCell id="94" value="" style="shape=partialRectangle;top=0;left=0;bottom=0;fillColor=#f5f5f5;align=left;verticalAlign=top;spacingLeft=4;spacingRight=4;overflow=hidden;rotatable=0;points=[];portConstraint=eastwest;part=1;fontSize=12;fontColor=#333333;strokeColor=#666666;rounded=1;" parent="93" vertex="1" connectable="0">
                    <mxGeometry width="30" height="26" as="geometry"/>
                </mxCell>
                <mxCell id="95" value="guard_name" style="shape=partialRectangle;top=0;left=0;right=0;bottom=0;align=left;verticalAlign=top;fillColor=#f5f5f5;spacingLeft=34;spacingRight=4;overflow=hidden;rotatable=0;points=[[0,0.5],[1,0.5]];portConstraint=eastwest;dropTarget=0;fontSize=12;fontColor=#333333;strokeColor=#666666;rounded=1;" parent="88" vertex="1">
                    <mxGeometry y="108" width="160" height="26" as="geometry"/>
                </mxCell>
                <mxCell id="96" value="" style="shape=partialRectangle;top=0;left=0;bottom=0;fillColor=#f5f5f5;align=left;verticalAlign=top;spacingLeft=4;spacingRight=4;overflow=hidden;rotatable=0;points=[];portConstraint=eastwest;part=1;fontSize=12;fontColor=#333333;strokeColor=#666666;rounded=1;" parent="95" vertex="1" connectable="0">
                    <mxGeometry width="30" height="26" as="geometry"/>
                </mxCell>
                <mxCell id="73" value="permission" style="swimlane;fontStyle=0;childLayout=stackLayout;horizontal=1;startSize=26;fillColor=#f5f5f5;horizontalStack=0;resizeParent=1;resizeParentMax=0;resizeLast=0;collapsible=1;marginBottom=0;swimlaneFillColor=#ffffff;align=center;fontSize=14;fontColor=#333333;strokeColor=#666666;rounded=1;" parent="88" vertex="1">
                    <mxGeometry y="134" width="160" height="160" as="geometry"/>
                </mxCell>
                <mxCell id="74" value="id" style="shape=partialRectangle;top=0;left=0;right=0;bottom=1;align=left;verticalAlign=middle;fillColor=#f5f5f5;spacingLeft=34;spacingRight=4;overflow=hidden;rotatable=0;points=[[0,0.5],[1,0.5]];portConstraint=eastwest;dropTarget=0;fontStyle=5;fontSize=12;fontColor=#333333;strokeColor=#666666;rounded=1;" parent="73" vertex="1">
                    <mxGeometry y="26" width="160" height="30" as="geometry"/>
                </mxCell>
                <mxCell id="75" value="PK" style="shape=partialRectangle;top=0;left=0;bottom=0;fillColor=#f5f5f5;align=left;verticalAlign=middle;spacingLeft=4;spacingRight=4;overflow=hidden;rotatable=0;points=[];portConstraint=eastwest;part=1;fontSize=12;fontColor=#333333;strokeColor=#666666;rounded=1;" parent="74" vertex="1" connectable="0">
                    <mxGeometry width="30" height="30" as="geometry"/>
                </mxCell>
                <mxCell id="76" value="name" style="shape=partialRectangle;top=0;left=0;right=0;bottom=0;align=left;verticalAlign=top;fillColor=#f5f5f5;spacingLeft=34;spacingRight=4;overflow=hidden;rotatable=0;points=[[0,0.5],[1,0.5]];portConstraint=eastwest;dropTarget=0;fontSize=12;fontColor=#333333;strokeColor=#666666;rounded=1;" parent="73" vertex="1">
                    <mxGeometry y="56" width="160" height="26" as="geometry"/>
                </mxCell>
                <mxCell id="77" value="" style="shape=partialRectangle;top=0;left=0;bottom=0;fillColor=#f5f5f5;align=left;verticalAlign=top;spacingLeft=4;spacingRight=4;overflow=hidden;rotatable=0;points=[];portConstraint=eastwest;part=1;fontSize=12;fontColor=#333333;strokeColor=#666666;rounded=1;" parent="76" vertex="1" connectable="0">
                    <mxGeometry width="30" height="26" as="geometry"/>
                </mxCell>
                <mxCell id="78" value="alias_name" style="shape=partialRectangle;top=0;left=0;right=0;bottom=0;align=left;verticalAlign=top;fillColor=#f5f5f5;spacingLeft=34;spacingRight=4;overflow=hidden;rotatable=0;points=[[0,0.5],[1,0.5]];portConstraint=eastwest;dropTarget=0;fontSize=12;fontColor=#333333;strokeColor=#666666;rounded=1;" parent="73" vertex="1">
                    <mxGeometry y="82" width="160" height="26" as="geometry"/>
                </mxCell>
                <mxCell id="79" value="" style="shape=partialRectangle;top=0;left=0;bottom=0;fillColor=#f5f5f5;align=left;verticalAlign=top;spacingLeft=4;spacingRight=4;overflow=hidden;rotatable=0;points=[];portConstraint=eastwest;part=1;fontSize=12;fontColor=#333333;strokeColor=#666666;rounded=1;" parent="78" vertex="1" connectable="0">
                    <mxGeometry width="30" height="26" as="geometry"/>
                </mxCell>
                <mxCell id="80" value="model_name" style="shape=partialRectangle;top=0;left=0;right=0;bottom=0;align=left;verticalAlign=top;fillColor=#f5f5f5;spacingLeft=34;spacingRight=4;overflow=hidden;rotatable=0;points=[[0,0.5],[1,0.5]];portConstraint=eastwest;dropTarget=0;fontSize=12;fontColor=#333333;strokeColor=#666666;rounded=1;" parent="73" vertex="1">
                    <mxGeometry y="108" width="160" height="26" as="geometry"/>
                </mxCell>
                <mxCell id="81" value="" style="shape=partialRectangle;top=0;left=0;bottom=0;fillColor=#f5f5f5;align=left;verticalAlign=top;spacingLeft=4;spacingRight=4;overflow=hidden;rotatable=0;points=[];portConstraint=eastwest;part=1;fontSize=12;fontColor=#333333;strokeColor=#666666;rounded=1;" parent="80" vertex="1" connectable="0">
                    <mxGeometry width="30" height="26" as="geometry"/>
                </mxCell>
                <mxCell id="82" value="guard_name" style="shape=partialRectangle;top=0;left=0;right=0;bottom=0;align=left;verticalAlign=top;fillColor=#f5f5f5;spacingLeft=34;spacingRight=4;overflow=hidden;rotatable=0;points=[[0,0.5],[1,0.5]];portConstraint=eastwest;dropTarget=0;fontSize=12;fontColor=#333333;strokeColor=#666666;rounded=1;" parent="73" vertex="1">
                    <mxGeometry y="134" width="160" height="26" as="geometry"/>
                </mxCell>
                <mxCell id="83" value="" style="shape=partialRectangle;top=0;left=0;bottom=0;fillColor=#f5f5f5;align=left;verticalAlign=top;spacingLeft=4;spacingRight=4;overflow=hidden;rotatable=0;points=[];portConstraint=eastwest;part=1;fontSize=12;fontColor=#333333;strokeColor=#666666;rounded=1;" parent="82" vertex="1" connectable="0">
                    <mxGeometry width="30" height="26" as="geometry"/>
                </mxCell>
                <mxCell id="zu2tDFOteG_yooguGcxT-49" value="settings" style="swimlane;fontStyle=0;childLayout=stackLayout;horizontal=1;startSize=26;fillColor=#f5f5f5;horizontalStack=0;resizeParent=1;resizeParentMax=0;resizeLast=0;collapsible=1;marginBottom=0;swimlaneFillColor=#ffffff;align=center;fontSize=14;fontColor=#333333;strokeColor=#666666;rounded=1;" parent="zu2tDFOteG_yooguGcxT-1" vertex="1">
                    <mxGeometry x="10" y="-1100" width="160" height="160" as="geometry">
                        <mxRectangle x="500" y="340" width="60" height="26" as="alternateBounds"/>
                    </mxGeometry>
                </mxCell>
                <mxCell id="zu2tDFOteG_yooguGcxT-50" value="id" style="shape=partialRectangle;top=0;left=0;right=0;bottom=1;align=left;verticalAlign=middle;fillColor=#f5f5f5;spacingLeft=34;spacingRight=4;overflow=hidden;rotatable=0;points=[[0,0.5],[1,0.5]];portConstraint=eastwest;dropTarget=0;fontStyle=5;fontSize=12;fontColor=#333333;strokeColor=#666666;rounded=1;" parent="zu2tDFOteG_yooguGcxT-49" vertex="1">
                    <mxGeometry y="26" width="160" height="30" as="geometry"/>
                </mxCell>
                <mxCell id="zu2tDFOteG_yooguGcxT-51" value="PK" style="shape=partialRectangle;top=0;left=0;bottom=0;fillColor=#f5f5f5;align=left;verticalAlign=middle;spacingLeft=4;spacingRight=4;overflow=hidden;rotatable=0;points=[];portConstraint=eastwest;part=1;fontSize=12;fontColor=#333333;strokeColor=#666666;rounded=1;" parent="zu2tDFOteG_yooguGcxT-50" vertex="1" connectable="0">
                    <mxGeometry width="30" height="30" as="geometry"/>
                </mxCell>
                <mxCell id="zu2tDFOteG_yooguGcxT-52" value="key" style="shape=partialRectangle;top=0;left=0;right=0;bottom=0;align=left;verticalAlign=top;fillColor=#f5f5f5;spacingLeft=34;spacingRight=4;overflow=hidden;rotatable=0;points=[[0,0.5],[1,0.5]];portConstraint=eastwest;dropTarget=0;fontSize=12;fontColor=#333333;strokeColor=#666666;rounded=1;" parent="zu2tDFOteG_yooguGcxT-49" vertex="1">
                    <mxGeometry y="56" width="160" height="26" as="geometry"/>
                </mxCell>
                <mxCell id="zu2tDFOteG_yooguGcxT-53" value="" style="shape=partialRectangle;top=0;left=0;bottom=0;fillColor=#f5f5f5;align=left;verticalAlign=top;spacingLeft=4;spacingRight=4;overflow=hidden;rotatable=0;points=[];portConstraint=eastwest;part=1;fontSize=12;fontColor=#333333;strokeColor=#666666;rounded=1;" parent="zu2tDFOteG_yooguGcxT-52" vertex="1" connectable="0">
                    <mxGeometry width="30" height="26" as="geometry"/>
                </mxCell>
                <mxCell id="zu2tDFOteG_yooguGcxT-56" value="data" style="shape=partialRectangle;top=0;left=0;right=0;bottom=0;align=left;verticalAlign=top;fillColor=#f5f5f5;spacingLeft=34;spacingRight=4;overflow=hidden;rotatable=0;points=[[0,0.5],[1,0.5]];portConstraint=eastwest;dropTarget=0;fontSize=12;fontColor=#333333;strokeColor=#666666;rounded=1;" parent="zu2tDFOteG_yooguGcxT-49" vertex="1">
                    <mxGeometry y="82" width="160" height="26" as="geometry"/>
                </mxCell>
                <mxCell id="zu2tDFOteG_yooguGcxT-57" value="array" style="shape=partialRectangle;top=0;left=0;bottom=0;fillColor=#f5f5f5;align=left;verticalAlign=top;spacingLeft=4;spacingRight=4;overflow=hidden;rotatable=0;points=[];portConstraint=eastwest;part=1;fontSize=12;fontColor=#333333;strokeColor=#666666;rounded=1;" parent="zu2tDFOteG_yooguGcxT-56" vertex="1" connectable="0">
                    <mxGeometry width="30" height="26" as="geometry"/>
                </mxCell>
                <mxCell id="zu2tDFOteG_yooguGcxT-58" value="created_at" style="shape=partialRectangle;top=0;left=0;right=0;bottom=0;align=left;verticalAlign=top;fillColor=#f5f5f5;spacingLeft=34;spacingRight=4;overflow=hidden;rotatable=0;points=[[0,0.5],[1,0.5]];portConstraint=eastwest;dropTarget=0;fontSize=12;fontColor=#333333;strokeColor=#666666;rounded=1;" parent="zu2tDFOteG_yooguGcxT-49" vertex="1">
                    <mxGeometry y="108" width="160" height="26" as="geometry"/>
                </mxCell>
                <mxCell id="zu2tDFOteG_yooguGcxT-59" value="" style="shape=partialRectangle;top=0;left=0;bottom=0;fillColor=#f5f5f5;align=left;verticalAlign=top;spacingLeft=4;spacingRight=4;overflow=hidden;rotatable=0;points=[];portConstraint=eastwest;part=1;fontSize=12;fontColor=#333333;strokeColor=#666666;rounded=1;" parent="zu2tDFOteG_yooguGcxT-58" vertex="1" connectable="0">
                    <mxGeometry width="30" height="26" as="geometry"/>
                </mxCell>
                <mxCell id="zu2tDFOteG_yooguGcxT-60" value="updated_at" style="shape=partialRectangle;top=0;left=0;right=0;bottom=0;align=left;verticalAlign=top;fillColor=#f5f5f5;spacingLeft=34;spacingRight=4;overflow=hidden;rotatable=0;points=[[0,0.5],[1,0.5]];portConstraint=eastwest;dropTarget=0;fontSize=12;fontColor=#333333;strokeColor=#666666;rounded=1;" parent="zu2tDFOteG_yooguGcxT-49" vertex="1">
                    <mxGeometry y="134" width="160" height="26" as="geometry"/>
                </mxCell>
                <mxCell id="zu2tDFOteG_yooguGcxT-61" value="" style="shape=partialRectangle;top=0;left=0;bottom=0;fillColor=#f5f5f5;align=left;verticalAlign=top;spacingLeft=4;spacingRight=4;overflow=hidden;rotatable=0;points=[];portConstraint=eastwest;part=1;fontSize=12;fontColor=#333333;strokeColor=#666666;rounded=1;" parent="zu2tDFOteG_yooguGcxT-60" vertex="1" connectable="0">
                    <mxGeometry width="30" height="26" as="geometry"/>
                </mxCell>
                <mxCell id="zu2tDFOteG_yooguGcxT-22" value="media" style="swimlane;fontStyle=0;childLayout=stackLayout;horizontal=1;startSize=26;fillColor=#f5f5f5;horizontalStack=0;resizeParent=1;resizeParentMax=0;resizeLast=0;collapsible=1;marginBottom=0;swimlaneFillColor=#ffffff;align=center;fontSize=14;fontColor=#333333;strokeColor=#666666;rounded=1;" parent="zu2tDFOteG_yooguGcxT-1" vertex="1">
                    <mxGeometry x="10" y="-930" width="160" height="368" as="geometry"/>
                </mxCell>
                <mxCell id="zu2tDFOteG_yooguGcxT-23" value="id" style="shape=partialRectangle;top=0;left=0;right=0;bottom=1;align=left;verticalAlign=middle;fillColor=#f5f5f5;spacingLeft=34;spacingRight=4;overflow=hidden;rotatable=0;points=[[0,0.5],[1,0.5]];portConstraint=eastwest;dropTarget=0;fontStyle=5;fontSize=12;fontColor=#333333;strokeColor=#666666;rounded=1;" parent="zu2tDFOteG_yooguGcxT-22" vertex="1">
                    <mxGeometry y="26" width="160" height="30" as="geometry"/>
                </mxCell>
                <mxCell id="zu2tDFOteG_yooguGcxT-24" value="PK" style="shape=partialRectangle;top=0;left=0;bottom=0;fillColor=#f5f5f5;align=left;verticalAlign=middle;spacingLeft=4;spacingRight=4;overflow=hidden;rotatable=0;points=[];portConstraint=eastwest;part=1;fontSize=12;fontColor=#333333;strokeColor=#666666;rounded=1;" parent="zu2tDFOteG_yooguGcxT-23" vertex="1" connectable="0">
                    <mxGeometry width="30" height="30" as="geometry"/>
                </mxCell>
                <mxCell id="zu2tDFOteG_yooguGcxT-25" value="model_type" style="shape=partialRectangle;top=0;left=0;right=0;bottom=0;align=left;verticalAlign=top;fillColor=#f5f5f5;spacingLeft=34;spacingRight=4;overflow=hidden;rotatable=0;points=[[0,0.5],[1,0.5]];portConstraint=eastwest;dropTarget=0;fontSize=12;fontColor=#333333;strokeColor=#666666;rounded=1;" parent="zu2tDFOteG_yooguGcxT-22" vertex="1">
                    <mxGeometry y="56" width="160" height="26" as="geometry"/>
                </mxCell>
                <mxCell id="zu2tDFOteG_yooguGcxT-26" value="" style="shape=partialRectangle;top=0;left=0;bottom=0;fillColor=#f5f5f5;align=left;verticalAlign=top;spacingLeft=4;spacingRight=4;overflow=hidden;rotatable=0;points=[];portConstraint=eastwest;part=1;fontSize=12;fontColor=#333333;strokeColor=#666666;rounded=1;" parent="zu2tDFOteG_yooguGcxT-25" vertex="1" connectable="0">
                    <mxGeometry width="30" height="26" as="geometry"/>
                </mxCell>
                <mxCell id="zu2tDFOteG_yooguGcxT-27" value="model_id" style="shape=partialRectangle;top=0;left=0;right=0;bottom=0;align=left;verticalAlign=top;fillColor=#f5f5f5;spacingLeft=34;spacingRight=4;overflow=hidden;rotatable=0;points=[[0,0.5],[1,0.5]];portConstraint=eastwest;dropTarget=0;fontSize=12;fontColor=#333333;strokeColor=#666666;rounded=1;" parent="zu2tDFOteG_yooguGcxT-22" vertex="1">
                    <mxGeometry y="82" width="160" height="26" as="geometry"/>
                </mxCell>
                <mxCell id="zu2tDFOteG_yooguGcxT-28" value="" style="shape=partialRectangle;top=0;left=0;bottom=0;fillColor=#f5f5f5;align=left;verticalAlign=top;spacingLeft=4;spacingRight=4;overflow=hidden;rotatable=0;points=[];portConstraint=eastwest;part=1;fontSize=12;fontColor=#333333;strokeColor=#666666;rounded=1;" parent="zu2tDFOteG_yooguGcxT-27" vertex="1" connectable="0">
                    <mxGeometry width="30" height="26" as="geometry"/>
                </mxCell>
                <mxCell id="zu2tDFOteG_yooguGcxT-29" value="collection_name" style="shape=partialRectangle;top=0;left=0;right=0;bottom=0;align=left;verticalAlign=top;fillColor=#f5f5f5;spacingLeft=34;spacingRight=4;overflow=hidden;rotatable=0;points=[[0,0.5],[1,0.5]];portConstraint=eastwest;dropTarget=0;fontSize=12;fontColor=#333333;strokeColor=#666666;rounded=1;" parent="zu2tDFOteG_yooguGcxT-22" vertex="1">
                    <mxGeometry y="108" width="160" height="26" as="geometry"/>
                </mxCell>
                <mxCell id="zu2tDFOteG_yooguGcxT-30" value="" style="shape=partialRectangle;top=0;left=0;bottom=0;fillColor=#f5f5f5;align=left;verticalAlign=top;spacingLeft=4;spacingRight=4;overflow=hidden;rotatable=0;points=[];portConstraint=eastwest;part=1;fontSize=12;fontColor=#333333;strokeColor=#666666;rounded=1;" parent="zu2tDFOteG_yooguGcxT-29" vertex="1" connectable="0">
                    <mxGeometry width="30" height="26" as="geometry"/>
                </mxCell>
                <mxCell id="zu2tDFOteG_yooguGcxT-31" value="name" style="shape=partialRectangle;top=0;left=0;right=0;bottom=0;align=left;verticalAlign=top;fillColor=#f5f5f5;spacingLeft=34;spacingRight=4;overflow=hidden;rotatable=0;points=[[0,0.5],[1,0.5]];portConstraint=eastwest;dropTarget=0;fontSize=12;fontColor=#333333;strokeColor=#666666;rounded=1;" parent="zu2tDFOteG_yooguGcxT-22" vertex="1">
                    <mxGeometry y="134" width="160" height="26" as="geometry"/>
                </mxCell>
                <mxCell id="zu2tDFOteG_yooguGcxT-32" value="" style="shape=partialRectangle;top=0;left=0;bottom=0;fillColor=#f5f5f5;align=left;verticalAlign=top;spacingLeft=4;spacingRight=4;overflow=hidden;rotatable=0;points=[];portConstraint=eastwest;part=1;fontSize=12;fontColor=#333333;strokeColor=#666666;rounded=1;" parent="zu2tDFOteG_yooguGcxT-31" vertex="1" connectable="0">
                    <mxGeometry width="30" height="26" as="geometry"/>
                </mxCell>
                <mxCell id="zu2tDFOteG_yooguGcxT-33" value="file_name" style="shape=partialRectangle;top=0;left=0;right=0;bottom=0;align=left;verticalAlign=top;fillColor=#f5f5f5;spacingLeft=34;spacingRight=4;overflow=hidden;rotatable=0;points=[[0,0.5],[1,0.5]];portConstraint=eastwest;dropTarget=0;fontSize=12;fontColor=#333333;strokeColor=#666666;rounded=1;" parent="zu2tDFOteG_yooguGcxT-22" vertex="1">
                    <mxGeometry y="160" width="160" height="26" as="geometry"/>
                </mxCell>
                <mxCell id="zu2tDFOteG_yooguGcxT-34" value="" style="shape=partialRectangle;top=0;left=0;bottom=0;fillColor=#f5f5f5;align=left;verticalAlign=top;spacingLeft=4;spacingRight=4;overflow=hidden;rotatable=0;points=[];portConstraint=eastwest;part=1;fontSize=12;fontColor=#333333;strokeColor=#666666;rounded=1;" parent="zu2tDFOteG_yooguGcxT-33" vertex="1" connectable="0">
                    <mxGeometry width="30" height="26" as="geometry"/>
                </mxCell>
                <mxCell id="zu2tDFOteG_yooguGcxT-35" value="mime_type" style="shape=partialRectangle;top=0;left=0;right=0;bottom=0;align=left;verticalAlign=top;fillColor=#f5f5f5;spacingLeft=34;spacingRight=4;overflow=hidden;rotatable=0;points=[[0,0.5],[1,0.5]];portConstraint=eastwest;dropTarget=0;fontSize=12;fontColor=#333333;strokeColor=#666666;rounded=1;" parent="zu2tDFOteG_yooguGcxT-22" vertex="1">
                    <mxGeometry y="186" width="160" height="26" as="geometry"/>
                </mxCell>
                <mxCell id="zu2tDFOteG_yooguGcxT-36" value="" style="shape=partialRectangle;top=0;left=0;bottom=0;fillColor=#f5f5f5;align=left;verticalAlign=top;spacingLeft=4;spacingRight=4;overflow=hidden;rotatable=0;points=[];portConstraint=eastwest;part=1;fontSize=12;fontColor=#333333;strokeColor=#666666;rounded=1;" parent="zu2tDFOteG_yooguGcxT-35" vertex="1" connectable="0">
                    <mxGeometry width="30" height="26" as="geometry"/>
                </mxCell>
                <mxCell id="zu2tDFOteG_yooguGcxT-37" value="size" style="shape=partialRectangle;top=0;left=0;right=0;bottom=0;align=left;verticalAlign=top;fillColor=#f5f5f5;spacingLeft=34;spacingRight=4;overflow=hidden;rotatable=0;points=[[0,0.5],[1,0.5]];portConstraint=eastwest;dropTarget=0;fontSize=12;fontColor=#333333;strokeColor=#666666;rounded=1;" parent="zu2tDFOteG_yooguGcxT-22" vertex="1">
                    <mxGeometry y="212" width="160" height="26" as="geometry"/>
                </mxCell>
                <mxCell id="zu2tDFOteG_yooguGcxT-38" value="" style="shape=partialRectangle;top=0;left=0;bottom=0;fillColor=#f5f5f5;align=left;verticalAlign=top;spacingLeft=4;spacingRight=4;overflow=hidden;rotatable=0;points=[];portConstraint=eastwest;part=1;fontSize=12;fontColor=#333333;strokeColor=#666666;rounded=1;" parent="zu2tDFOteG_yooguGcxT-37" vertex="1" connectable="0">
                    <mxGeometry width="30" height="26" as="geometry"/>
                </mxCell>
                <mxCell id="zu2tDFOteG_yooguGcxT-39" value="disk" style="shape=partialRectangle;top=0;left=0;right=0;bottom=0;align=left;verticalAlign=top;fillColor=#f5f5f5;spacingLeft=34;spacingRight=4;overflow=hidden;rotatable=0;points=[[0,0.5],[1,0.5]];portConstraint=eastwest;dropTarget=0;fontSize=12;fontColor=#333333;strokeColor=#666666;rounded=1;" parent="zu2tDFOteG_yooguGcxT-22" vertex="1">
                    <mxGeometry y="238" width="160" height="26" as="geometry"/>
                </mxCell>
                <mxCell id="zu2tDFOteG_yooguGcxT-40" value="" style="shape=partialRectangle;top=0;left=0;bottom=0;fillColor=#f5f5f5;align=left;verticalAlign=top;spacingLeft=4;spacingRight=4;overflow=hidden;rotatable=0;points=[];portConstraint=eastwest;part=1;fontSize=12;fontColor=#333333;strokeColor=#666666;rounded=1;" parent="zu2tDFOteG_yooguGcxT-39" vertex="1" connectable="0">
                    <mxGeometry width="30" height="26" as="geometry"/>
                </mxCell>
                <mxCell id="zu2tDFOteG_yooguGcxT-41" value="manipulations" style="shape=partialRectangle;top=0;left=0;right=0;bottom=0;align=left;verticalAlign=top;fillColor=#f5f5f5;spacingLeft=34;spacingRight=4;overflow=hidden;rotatable=0;points=[[0,0.5],[1,0.5]];portConstraint=eastwest;dropTarget=0;fontSize=12;fontColor=#333333;strokeColor=#666666;rounded=1;" parent="zu2tDFOteG_yooguGcxT-22" vertex="1">
                    <mxGeometry y="264" width="160" height="26" as="geometry"/>
                </mxCell>
                <mxCell id="zu2tDFOteG_yooguGcxT-42" value="" style="shape=partialRectangle;top=0;left=0;bottom=0;fillColor=#f5f5f5;align=left;verticalAlign=top;spacingLeft=4;spacingRight=4;overflow=hidden;rotatable=0;points=[];portConstraint=eastwest;part=1;fontSize=12;fontColor=#333333;strokeColor=#666666;rounded=1;" parent="zu2tDFOteG_yooguGcxT-41" vertex="1" connectable="0">
                    <mxGeometry width="30" height="26" as="geometry"/>
                </mxCell>
                <mxCell id="zu2tDFOteG_yooguGcxT-43" value="custom_properties" style="shape=partialRectangle;top=0;left=0;right=0;bottom=0;align=left;verticalAlign=top;fillColor=#f5f5f5;spacingLeft=34;spacingRight=4;overflow=hidden;rotatable=0;points=[[0,0.5],[1,0.5]];portConstraint=eastwest;dropTarget=0;fontSize=12;fontColor=#333333;strokeColor=#666666;rounded=1;" parent="zu2tDFOteG_yooguGcxT-22" vertex="1">
                    <mxGeometry y="290" width="160" height="26" as="geometry"/>
                </mxCell>
                <mxCell id="zu2tDFOteG_yooguGcxT-44" value="" style="shape=partialRectangle;top=0;left=0;bottom=0;fillColor=#f5f5f5;align=left;verticalAlign=top;spacingLeft=4;spacingRight=4;overflow=hidden;rotatable=0;points=[];portConstraint=eastwest;part=1;fontSize=12;fontColor=#333333;strokeColor=#666666;rounded=1;" parent="zu2tDFOteG_yooguGcxT-43" vertex="1" connectable="0">
                    <mxGeometry width="30" height="26" as="geometry"/>
                </mxCell>
                <mxCell id="zu2tDFOteG_yooguGcxT-45" value="responsive_images" style="shape=partialRectangle;top=0;left=0;right=0;bottom=0;align=left;verticalAlign=top;fillColor=#f5f5f5;spacingLeft=34;spacingRight=4;overflow=hidden;rotatable=0;points=[[0,0.5],[1,0.5]];portConstraint=eastwest;dropTarget=0;fontSize=12;fontColor=#333333;strokeColor=#666666;rounded=1;" parent="zu2tDFOteG_yooguGcxT-22" vertex="1">
                    <mxGeometry y="316" width="160" height="26" as="geometry"/>
                </mxCell>
                <mxCell id="zu2tDFOteG_yooguGcxT-46" value="" style="shape=partialRectangle;top=0;left=0;bottom=0;fillColor=#f5f5f5;align=left;verticalAlign=top;spacingLeft=4;spacingRight=4;overflow=hidden;rotatable=0;points=[];portConstraint=eastwest;part=1;fontSize=12;fontColor=#333333;strokeColor=#666666;rounded=1;" parent="zu2tDFOteG_yooguGcxT-45" vertex="1" connectable="0">
                    <mxGeometry width="30" height="26" as="geometry"/>
                </mxCell>
                <mxCell id="zu2tDFOteG_yooguGcxT-47" value="order_column" style="shape=partialRectangle;top=0;left=0;right=0;bottom=0;align=left;verticalAlign=top;fillColor=#f5f5f5;spacingLeft=34;spacingRight=4;overflow=hidden;rotatable=0;points=[[0,0.5],[1,0.5]];portConstraint=eastwest;dropTarget=0;fontSize=12;fontColor=#333333;strokeColor=#666666;rounded=1;" parent="zu2tDFOteG_yooguGcxT-22" vertex="1">
                    <mxGeometry y="342" width="160" height="26" as="geometry"/>
                </mxCell>
                <mxCell id="zu2tDFOteG_yooguGcxT-48" value="" style="shape=partialRectangle;top=0;left=0;bottom=0;fillColor=#f5f5f5;align=left;verticalAlign=top;spacingLeft=4;spacingRight=4;overflow=hidden;rotatable=0;points=[];portConstraint=eastwest;part=1;fontSize=12;fontColor=#333333;strokeColor=#666666;rounded=1;" parent="zu2tDFOteG_yooguGcxT-47" vertex="1" connectable="0">
                    <mxGeometry width="30" height="26" as="geometry"/>
                </mxCell>
                <mxCell id="Qn4cnvaLyCnqKfBc_oDm-285" value="leads" style="swimlane;fontStyle=0;childLayout=stackLayout;horizontal=1;startSize=26;fillColor=#f5f5f5;horizontalStack=0;resizeParent=1;resizeParentMax=0;resizeLast=0;collapsible=1;marginBottom=0;swimlaneFillColor=#ffffff;align=center;fontSize=14;strokeColor=#666666;fontColor=#333333;rounded=1;" parent="zu2tDFOteG_yooguGcxT-1" vertex="1">
                    <mxGeometry x="561" y="-820" width="160" height="238" as="geometry">
                        <mxRectangle x="500" y="340" width="60" height="26" as="alternateBounds"/>
                    </mxGeometry>
                </mxCell>
                <mxCell id="Qn4cnvaLyCnqKfBc_oDm-286" value="id" style="shape=partialRectangle;top=0;left=0;right=0;bottom=1;align=left;verticalAlign=middle;fillColor=#f5f5f5;spacingLeft=34;spacingRight=4;overflow=hidden;rotatable=0;points=[[0,0.5],[1,0.5]];portConstraint=eastwest;dropTarget=0;fontStyle=5;fontSize=12;fontColor=#333333;strokeColor=#666666;rounded=1;" parent="Qn4cnvaLyCnqKfBc_oDm-285" vertex="1">
                    <mxGeometry y="26" width="160" height="30" as="geometry"/>
                </mxCell>
                <mxCell id="Qn4cnvaLyCnqKfBc_oDm-287" value="PK" style="shape=partialRectangle;top=0;left=0;bottom=0;fillColor=#f5f5f5;align=left;verticalAlign=middle;spacingLeft=4;spacingRight=4;overflow=hidden;rotatable=0;points=[];portConstraint=eastwest;part=1;fontSize=12;fontColor=#333333;strokeColor=#666666;rounded=1;" parent="Qn4cnvaLyCnqKfBc_oDm-286" vertex="1" connectable="0">
                    <mxGeometry width="30" height="30" as="geometry"/>
                </mxCell>
                <mxCell id="416" value="type" style="shape=partialRectangle;top=0;left=0;right=0;bottom=0;align=left;verticalAlign=top;fillColor=#f5f5f5;spacingLeft=34;spacingRight=4;overflow=hidden;rotatable=0;points=[[0,0.5],[1,0.5]];portConstraint=eastwest;dropTarget=0;fontSize=12;fontColor=#333333;strokeColor=#666666;rounded=1;" vertex="1" parent="Qn4cnvaLyCnqKfBc_oDm-285">
                    <mxGeometry y="56" width="160" height="26" as="geometry"/>
                </mxCell>
                <mxCell id="417" value="" style="shape=partialRectangle;top=0;left=0;bottom=0;fillColor=#f5f5f5;align=left;verticalAlign=top;spacingLeft=4;spacingRight=4;overflow=hidden;rotatable=0;points=[];portConstraint=eastwest;part=1;fontSize=12;fontColor=#333333;strokeColor=#666666;rounded=1;" vertex="1" connectable="0" parent="416">
                    <mxGeometry width="30" height="26" as="geometry"/>
                </mxCell>
                <mxCell id="Qn4cnvaLyCnqKfBc_oDm-304" value="name" style="shape=partialRectangle;top=0;left=0;right=0;bottom=0;align=left;verticalAlign=top;fillColor=#f5f5f5;spacingLeft=34;spacingRight=4;overflow=hidden;rotatable=0;points=[[0,0.5],[1,0.5]];portConstraint=eastwest;dropTarget=0;fontSize=12;fontColor=#333333;strokeColor=#666666;rounded=1;" parent="Qn4cnvaLyCnqKfBc_oDm-285" vertex="1">
                    <mxGeometry y="82" width="160" height="26" as="geometry"/>
                </mxCell>
                <mxCell id="Qn4cnvaLyCnqKfBc_oDm-305" value="" style="shape=partialRectangle;top=0;left=0;bottom=0;fillColor=#f5f5f5;align=left;verticalAlign=top;spacingLeft=4;spacingRight=4;overflow=hidden;rotatable=0;points=[];portConstraint=eastwest;part=1;fontSize=12;fontColor=#333333;strokeColor=#666666;rounded=1;" parent="Qn4cnvaLyCnqKfBc_oDm-304" vertex="1" connectable="0">
                    <mxGeometry width="30" height="26" as="geometry"/>
                </mxCell>
                <mxCell id="Qn4cnvaLyCnqKfBc_oDm-308" value="phone" style="shape=partialRectangle;top=0;left=0;right=0;bottom=0;align=left;verticalAlign=top;fillColor=#f5f5f5;spacingLeft=34;spacingRight=4;overflow=hidden;rotatable=0;points=[[0,0.5],[1,0.5]];portConstraint=eastwest;dropTarget=0;fontSize=12;fontColor=#333333;strokeColor=#666666;rounded=1;" parent="Qn4cnvaLyCnqKfBc_oDm-285" vertex="1">
                    <mxGeometry y="108" width="160" height="26" as="geometry"/>
                </mxCell>
                <mxCell id="Qn4cnvaLyCnqKfBc_oDm-309" value="" style="shape=partialRectangle;top=0;left=0;bottom=0;fillColor=#f5f5f5;align=left;verticalAlign=top;spacingLeft=4;spacingRight=4;overflow=hidden;rotatable=0;points=[];portConstraint=eastwest;part=1;fontSize=12;fontColor=#333333;strokeColor=#666666;rounded=1;" parent="Qn4cnvaLyCnqKfBc_oDm-308" vertex="1" connectable="0">
                    <mxGeometry width="30" height="26" as="geometry"/>
                </mxCell>
                <mxCell id="Qn4cnvaLyCnqKfBc_oDm-310" value="email" style="shape=partialRectangle;top=0;left=0;right=0;bottom=0;align=left;verticalAlign=top;fillColor=#f5f5f5;spacingLeft=34;spacingRight=4;overflow=hidden;rotatable=0;points=[[0,0.5],[1,0.5]];portConstraint=eastwest;dropTarget=0;fontSize=12;fontColor=#333333;strokeColor=#666666;rounded=1;" parent="Qn4cnvaLyCnqKfBc_oDm-285" vertex="1">
                    <mxGeometry y="134" width="160" height="26" as="geometry"/>
                </mxCell>
                <mxCell id="Qn4cnvaLyCnqKfBc_oDm-311" value="" style="shape=partialRectangle;top=0;left=0;bottom=0;fillColor=#f5f5f5;align=left;verticalAlign=top;spacingLeft=4;spacingRight=4;overflow=hidden;rotatable=0;points=[];portConstraint=eastwest;part=1;fontSize=12;fontColor=#333333;strokeColor=#666666;rounded=1;" parent="Qn4cnvaLyCnqKfBc_oDm-310" vertex="1" connectable="0">
                    <mxGeometry width="30" height="26" as="geometry"/>
                </mxCell>
                <mxCell id="Qn4cnvaLyCnqKfBc_oDm-306" value="description" style="shape=partialRectangle;top=0;left=0;right=0;bottom=0;align=left;verticalAlign=top;fillColor=#f5f5f5;spacingLeft=34;spacingRight=4;overflow=hidden;rotatable=0;points=[[0,0.5],[1,0.5]];portConstraint=eastwest;dropTarget=0;fontSize=12;fontColor=#333333;strokeColor=#666666;rounded=1;" parent="Qn4cnvaLyCnqKfBc_oDm-285" vertex="1">
                    <mxGeometry y="160" width="160" height="26" as="geometry"/>
                </mxCell>
                <mxCell id="Qn4cnvaLyCnqKfBc_oDm-307" value="" style="shape=partialRectangle;top=0;left=0;bottom=0;fillColor=#f5f5f5;align=left;verticalAlign=top;spacingLeft=4;spacingRight=4;overflow=hidden;rotatable=0;points=[];portConstraint=eastwest;part=1;fontSize=12;fontColor=#333333;strokeColor=#666666;rounded=1;" parent="Qn4cnvaLyCnqKfBc_oDm-306" vertex="1" connectable="0">
                    <mxGeometry width="30" height="26" as="geometry"/>
                </mxCell>
                <mxCell id="Qn4cnvaLyCnqKfBc_oDm-294" value="created_at" style="shape=partialRectangle;top=0;left=0;right=0;bottom=0;align=left;verticalAlign=top;fillColor=#f5f5f5;spacingLeft=34;spacingRight=4;overflow=hidden;rotatable=0;points=[[0,0.5],[1,0.5]];portConstraint=eastwest;dropTarget=0;fontSize=12;fontColor=#333333;strokeColor=#666666;rounded=1;" parent="Qn4cnvaLyCnqKfBc_oDm-285" vertex="1">
                    <mxGeometry y="186" width="160" height="26" as="geometry"/>
                </mxCell>
                <mxCell id="Qn4cnvaLyCnqKfBc_oDm-295" value="" style="shape=partialRectangle;top=0;left=0;bottom=0;fillColor=#f5f5f5;align=left;verticalAlign=top;spacingLeft=4;spacingRight=4;overflow=hidden;rotatable=0;points=[];portConstraint=eastwest;part=1;fontSize=12;fontColor=#333333;strokeColor=#666666;rounded=1;" parent="Qn4cnvaLyCnqKfBc_oDm-294" vertex="1" connectable="0">
                    <mxGeometry width="30" height="26" as="geometry"/>
                </mxCell>
                <mxCell id="Qn4cnvaLyCnqKfBc_oDm-296" value="updated_at" style="shape=partialRectangle;top=0;left=0;right=0;bottom=0;align=left;verticalAlign=top;fillColor=#f5f5f5;spacingLeft=34;spacingRight=4;overflow=hidden;rotatable=0;points=[[0,0.5],[1,0.5]];portConstraint=eastwest;dropTarget=0;fontSize=12;fontColor=#333333;strokeColor=#666666;rounded=1;" parent="Qn4cnvaLyCnqKfBc_oDm-285" vertex="1">
                    <mxGeometry y="212" width="160" height="26" as="geometry"/>
                </mxCell>
                <mxCell id="Qn4cnvaLyCnqKfBc_oDm-297" value="" style="shape=partialRectangle;top=0;left=0;bottom=0;fillColor=#f5f5f5;align=left;verticalAlign=top;spacingLeft=4;spacingRight=4;overflow=hidden;rotatable=0;points=[];portConstraint=eastwest;part=1;fontSize=12;fontColor=#333333;strokeColor=#666666;rounded=1;" parent="Qn4cnvaLyCnqKfBc_oDm-296" vertex="1" connectable="0">
                    <mxGeometry width="30" height="26" as="geometry"/>
                </mxCell>
                <mxCell id="zu2tDFOteG_yooguGcxT-174" value="password_resets" style="swimlane;fontStyle=0;childLayout=stackLayout;horizontal=1;startSize=26;fillColor=#f5f5f5;horizontalStack=0;resizeParent=1;resizeParentMax=0;resizeLast=0;collapsible=1;marginBottom=0;swimlaneFillColor=#ffffff;align=center;fontSize=14;fontColor=#333333;strokeColor=#666666;rounded=1;" parent="zu2tDFOteG_yooguGcxT-1" vertex="1">
                    <mxGeometry x="180" y="-800" width="162" height="238" as="geometry"/>
                </mxCell>
                <mxCell id="zu2tDFOteG_yooguGcxT-175" value="email" style="shape=partialRectangle;top=0;left=0;right=0;bottom=0;align=left;verticalAlign=top;fillColor=#f5f5f5;spacingLeft=34;spacingRight=4;overflow=hidden;rotatable=0;points=[[0,0.5],[1,0.5]];portConstraint=eastwest;dropTarget=0;fontSize=12;fontColor=#333333;strokeColor=#666666;rounded=1;" parent="zu2tDFOteG_yooguGcxT-174" vertex="1">
                    <mxGeometry y="26" width="162" height="26" as="geometry"/>
                </mxCell>
                <mxCell id="zu2tDFOteG_yooguGcxT-176" value="" style="shape=partialRectangle;top=0;left=0;bottom=0;fillColor=#f5f5f5;align=left;verticalAlign=top;spacingLeft=4;spacingRight=4;overflow=hidden;rotatable=0;points=[];portConstraint=eastwest;part=1;fontSize=12;fontColor=#333333;strokeColor=#666666;rounded=1;" parent="zu2tDFOteG_yooguGcxT-175" vertex="1" connectable="0">
                    <mxGeometry width="30" height="26" as="geometry"/>
                </mxCell>
                <mxCell id="zu2tDFOteG_yooguGcxT-177" value="token&#10;" style="shape=partialRectangle;top=0;left=0;right=0;bottom=0;align=left;verticalAlign=top;fillColor=#f5f5f5;spacingLeft=34;spacingRight=4;overflow=hidden;rotatable=0;points=[[0,0.5],[1,0.5]];portConstraint=eastwest;dropTarget=0;fontSize=12;fontColor=#333333;strokeColor=#666666;rounded=1;" parent="zu2tDFOteG_yooguGcxT-174" vertex="1">
                    <mxGeometry y="52" width="162" height="26" as="geometry"/>
                </mxCell>
                <mxCell id="zu2tDFOteG_yooguGcxT-178" value="" style="shape=partialRectangle;top=0;left=0;bottom=0;fillColor=#f5f5f5;align=left;verticalAlign=top;spacingLeft=4;spacingRight=4;overflow=hidden;rotatable=0;points=[];portConstraint=eastwest;part=1;fontSize=12;fontColor=#333333;strokeColor=#666666;rounded=1;" parent="zu2tDFOteG_yooguGcxT-177" vertex="1" connectable="0">
                    <mxGeometry width="30" height="26" as="geometry"/>
                </mxCell>
                <mxCell id="zu2tDFOteG_yooguGcxT-163" value="notifications" style="swimlane;fontStyle=0;childLayout=stackLayout;horizontal=1;startSize=26;fillColor=#f5f5f5;horizontalStack=0;resizeParent=1;resizeParentMax=0;resizeLast=0;collapsible=1;marginBottom=0;swimlaneFillColor=#ffffff;align=center;fontSize=14;fontColor=#333333;strokeColor=#666666;rounded=1;" parent="zu2tDFOteG_yooguGcxT-174" vertex="1">
                    <mxGeometry y="78" width="162" height="160" as="geometry"/>
                </mxCell>
                <mxCell id="zu2tDFOteG_yooguGcxT-164" value="id" style="shape=partialRectangle;top=0;left=0;right=0;bottom=1;align=left;verticalAlign=middle;fillColor=#f5f5f5;spacingLeft=34;spacingRight=4;overflow=hidden;rotatable=0;points=[[0,0.5],[1,0.5]];portConstraint=eastwest;dropTarget=0;fontStyle=5;fontSize=12;fontColor=#333333;strokeColor=#666666;rounded=1;" parent="zu2tDFOteG_yooguGcxT-163" vertex="1">
                    <mxGeometry y="26" width="162" height="30" as="geometry"/>
                </mxCell>
                <mxCell id="zu2tDFOteG_yooguGcxT-165" value="PK" style="shape=partialRectangle;top=0;left=0;bottom=0;fillColor=#f5f5f5;align=left;verticalAlign=middle;spacingLeft=4;spacingRight=4;overflow=hidden;rotatable=0;points=[];portConstraint=eastwest;part=1;fontSize=12;fontColor=#333333;strokeColor=#666666;rounded=1;" parent="zu2tDFOteG_yooguGcxT-164" vertex="1" connectable="0">
                    <mxGeometry width="30" height="30" as="geometry"/>
                </mxCell>
                <mxCell id="zu2tDFOteG_yooguGcxT-166" value="type" style="shape=partialRectangle;top=0;left=0;right=0;bottom=0;align=left;verticalAlign=top;fillColor=#f5f5f5;spacingLeft=34;spacingRight=4;overflow=hidden;rotatable=0;points=[[0,0.5],[1,0.5]];portConstraint=eastwest;dropTarget=0;fontSize=12;fontColor=#333333;strokeColor=#666666;rounded=1;" parent="zu2tDFOteG_yooguGcxT-163" vertex="1">
                    <mxGeometry y="56" width="162" height="26" as="geometry"/>
                </mxCell>
                <mxCell id="zu2tDFOteG_yooguGcxT-167" value="" style="shape=partialRectangle;top=0;left=0;bottom=0;fillColor=#f5f5f5;align=left;verticalAlign=top;spacingLeft=4;spacingRight=4;overflow=hidden;rotatable=0;points=[];portConstraint=eastwest;part=1;fontSize=12;fontColor=#333333;strokeColor=#666666;rounded=1;" parent="zu2tDFOteG_yooguGcxT-166" vertex="1" connectable="0">
                    <mxGeometry width="30" height="26" as="geometry"/>
                </mxCell>
                <mxCell id="zu2tDFOteG_yooguGcxT-168" value="notifiable_id" style="shape=partialRectangle;top=0;left=0;right=0;bottom=0;align=left;verticalAlign=top;fillColor=#f5f5f5;spacingLeft=34;spacingRight=4;overflow=hidden;rotatable=0;points=[[0,0.5],[1,0.5]];portConstraint=eastwest;dropTarget=0;fontSize=12;fontColor=#333333;strokeColor=#666666;rounded=1;" parent="zu2tDFOteG_yooguGcxT-163" vertex="1">
                    <mxGeometry y="82" width="162" height="26" as="geometry"/>
                </mxCell>
                <mxCell id="zu2tDFOteG_yooguGcxT-169" value="" style="shape=partialRectangle;top=0;left=0;bottom=0;fillColor=#f5f5f5;align=left;verticalAlign=top;spacingLeft=4;spacingRight=4;overflow=hidden;rotatable=0;points=[];portConstraint=eastwest;part=1;fontSize=12;fontColor=#333333;strokeColor=#666666;rounded=1;" parent="zu2tDFOteG_yooguGcxT-168" vertex="1" connectable="0">
                    <mxGeometry width="30" height="26" as="geometry"/>
                </mxCell>
                <mxCell id="zu2tDFOteG_yooguGcxT-170" value="notifiable_type" style="shape=partialRectangle;top=0;left=0;right=0;bottom=0;align=left;verticalAlign=top;fillColor=#f5f5f5;spacingLeft=34;spacingRight=4;overflow=hidden;rotatable=0;points=[[0,0.5],[1,0.5]];portConstraint=eastwest;dropTarget=0;fontSize=12;fontColor=#333333;strokeColor=#666666;rounded=1;" parent="zu2tDFOteG_yooguGcxT-163" vertex="1">
                    <mxGeometry y="108" width="162" height="26" as="geometry"/>
                </mxCell>
                <mxCell id="zu2tDFOteG_yooguGcxT-171" value="" style="shape=partialRectangle;top=0;left=0;bottom=0;fillColor=#f5f5f5;align=left;verticalAlign=top;spacingLeft=4;spacingRight=4;overflow=hidden;rotatable=0;points=[];portConstraint=eastwest;part=1;fontSize=12;fontColor=#333333;strokeColor=#666666;rounded=1;" parent="zu2tDFOteG_yooguGcxT-170" vertex="1" connectable="0">
                    <mxGeometry width="30" height="26" as="geometry"/>
                </mxCell>
                <mxCell id="zu2tDFOteG_yooguGcxT-172" value="read_at" style="shape=partialRectangle;top=0;left=0;right=0;bottom=0;align=left;verticalAlign=top;fillColor=#f5f5f5;spacingLeft=34;spacingRight=4;overflow=hidden;rotatable=0;points=[[0,0.5],[1,0.5]];portConstraint=eastwest;dropTarget=0;fontSize=12;fontColor=#333333;strokeColor=#666666;rounded=1;" parent="zu2tDFOteG_yooguGcxT-163" vertex="1">
                    <mxGeometry y="134" width="162" height="26" as="geometry"/>
                </mxCell>
                <mxCell id="zu2tDFOteG_yooguGcxT-173" value="" style="shape=partialRectangle;top=0;left=0;bottom=0;fillColor=#f5f5f5;align=left;verticalAlign=top;spacingLeft=4;spacingRight=4;overflow=hidden;rotatable=0;points=[];portConstraint=eastwest;part=1;fontSize=12;fontColor=#333333;strokeColor=#666666;rounded=1;" parent="zu2tDFOteG_yooguGcxT-172" vertex="1" connectable="0">
                    <mxGeometry width="30" height="26" as="geometry"/>
                </mxCell>
                <mxCell id="250" style="edgeStyle=orthogonalEdgeStyle;orthogonalLoop=1;jettySize=auto;html=1;entryX=0;entryY=0.5;entryDx=0;entryDy=0;curved=1;" parent="zu2tDFOteG_yooguGcxT-1" edge="1">
                    <mxGeometry relative="1" as="geometry">
                        <mxPoint x="1938" y="-669" as="sourcePoint"/>
                    </mxGeometry>
                </mxCell>
                <mxCell id="382" value="servies" style="swimlane;fontStyle=0;childLayout=stackLayout;horizontal=1;startSize=26;fillColor=#f5f5f5;horizontalStack=0;resizeParent=1;resizeParentMax=0;resizeLast=0;collapsible=1;marginBottom=0;swimlaneFillColor=#ffffff;align=center;fontSize=14;fontColor=#333333;strokeColor=#666666;rounded=1;" parent="zu2tDFOteG_yooguGcxT-1" vertex="1">
                    <mxGeometry x="790" y="-782" width="162" height="160" as="geometry"/>
                </mxCell>
                <mxCell id="383" value="id" style="shape=partialRectangle;top=0;left=0;right=0;bottom=1;align=left;verticalAlign=middle;fillColor=#f5f5f5;spacingLeft=34;spacingRight=4;overflow=hidden;rotatable=0;points=[[0,0.5],[1,0.5]];portConstraint=eastwest;dropTarget=0;fontStyle=5;fontSize=12;fontColor=#333333;strokeColor=#666666;rounded=1;" parent="382" vertex="1">
                    <mxGeometry y="26" width="162" height="30" as="geometry"/>
                </mxCell>
                <mxCell id="384" value="PK" style="shape=partialRectangle;top=0;left=0;bottom=0;fillColor=#f5f5f5;align=left;verticalAlign=middle;spacingLeft=4;spacingRight=4;overflow=hidden;rotatable=0;points=[];portConstraint=eastwest;part=1;fontSize=12;fontColor=#333333;strokeColor=#666666;rounded=1;" parent="383" connectable="0" vertex="1">
                    <mxGeometry width="30" height="30" as="geometry"/>
                </mxCell>
                <mxCell id="385" value="name" style="shape=partialRectangle;top=0;left=0;right=0;bottom=0;align=left;verticalAlign=top;fillColor=#f5f5f5;spacingLeft=34;spacingRight=4;overflow=hidden;rotatable=0;points=[[0,0.5],[1,0.5]];portConstraint=eastwest;dropTarget=0;fontSize=12;fontColor=#333333;strokeColor=#666666;rounded=1;" parent="382" vertex="1">
                    <mxGeometry y="56" width="162" height="26" as="geometry"/>
                </mxCell>
                <mxCell id="386" value="" style="shape=partialRectangle;top=0;left=0;bottom=0;fillColor=#f5f5f5;align=left;verticalAlign=top;spacingLeft=4;spacingRight=4;overflow=hidden;rotatable=0;points=[];portConstraint=eastwest;part=1;fontSize=12;fontColor=#333333;strokeColor=#666666;rounded=1;" parent="385" connectable="0" vertex="1">
                    <mxGeometry width="30" height="26" as="geometry"/>
                </mxCell>
                <mxCell id="387" value="description" style="shape=partialRectangle;top=0;left=0;right=0;bottom=0;align=left;verticalAlign=top;fillColor=#f5f5f5;spacingLeft=34;spacingRight=4;overflow=hidden;rotatable=0;points=[[0,0.5],[1,0.5]];portConstraint=eastwest;dropTarget=0;fontSize=12;fontColor=#333333;strokeColor=#666666;rounded=1;" parent="382" vertex="1">
                    <mxGeometry y="82" width="162" height="26" as="geometry"/>
                </mxCell>
                <mxCell id="388" value="" style="shape=partialRectangle;top=0;left=0;bottom=0;fillColor=#f5f5f5;align=left;verticalAlign=top;spacingLeft=4;spacingRight=4;overflow=hidden;rotatable=0;points=[];portConstraint=eastwest;part=1;fontSize=12;fontColor=#333333;strokeColor=#666666;rounded=1;" parent="387" connectable="0" vertex="1">
                    <mxGeometry width="30" height="26" as="geometry"/>
                </mxCell>
                <mxCell id="395" value="created_at" style="shape=partialRectangle;top=0;left=0;right=0;bottom=0;align=left;verticalAlign=top;fillColor=#f5f5f5;spacingLeft=34;spacingRight=4;overflow=hidden;rotatable=0;points=[[0,0.5],[1,0.5]];portConstraint=eastwest;dropTarget=0;fontSize=12;fontColor=#333333;strokeColor=#666666;rounded=1;" parent="382" vertex="1">
                    <mxGeometry y="108" width="162" height="26" as="geometry"/>
                </mxCell>
                <mxCell id="396" value="" style="shape=partialRectangle;top=0;left=0;bottom=0;fillColor=#f5f5f5;align=left;verticalAlign=top;spacingLeft=4;spacingRight=4;overflow=hidden;rotatable=0;points=[];portConstraint=eastwest;part=1;fontSize=12;fontColor=#333333;strokeColor=#666666;rounded=1;" parent="395" connectable="0" vertex="1">
                    <mxGeometry width="30" height="26" as="geometry"/>
                </mxCell>
                <mxCell id="397" value="updated_at" style="shape=partialRectangle;top=0;left=0;right=0;bottom=0;align=left;verticalAlign=top;fillColor=#f5f5f5;spacingLeft=34;spacingRight=4;overflow=hidden;rotatable=0;points=[[0,0.5],[1,0.5]];portConstraint=eastwest;dropTarget=0;fontSize=12;fontColor=#333333;strokeColor=#666666;rounded=1;" parent="382" vertex="1">
                    <mxGeometry y="134" width="162" height="26" as="geometry"/>
                </mxCell>
                <mxCell id="398" value="" style="shape=partialRectangle;top=0;left=0;bottom=0;fillColor=#f5f5f5;align=left;verticalAlign=top;spacingLeft=4;spacingRight=4;overflow=hidden;rotatable=0;points=[];portConstraint=eastwest;part=1;fontSize=12;fontColor=#333333;strokeColor=#666666;rounded=1;" parent="397" connectable="0" vertex="1">
                    <mxGeometry width="30" height="26" as="geometry"/>
                </mxCell>
                <mxCell id="418" value="clients" style="swimlane;fontStyle=0;childLayout=stackLayout;horizontal=1;startSize=26;fillColor=#f5f5f5;horizontalStack=0;resizeParent=1;resizeParentMax=0;resizeLast=0;collapsible=1;marginBottom=0;swimlaneFillColor=#ffffff;align=center;fontSize=14;fontColor=#333333;strokeColor=#666666;rounded=1;" vertex="1" parent="zu2tDFOteG_yooguGcxT-1">
                    <mxGeometry x="1260" y="-860" width="162" height="160" as="geometry"/>
                </mxCell>
                <mxCell id="419" value="id" style="shape=partialRectangle;top=0;left=0;right=0;bottom=1;align=left;verticalAlign=middle;fillColor=#f5f5f5;spacingLeft=34;spacingRight=4;overflow=hidden;rotatable=0;points=[[0,0.5],[1,0.5]];portConstraint=eastwest;dropTarget=0;fontStyle=5;fontSize=12;fontColor=#333333;strokeColor=#666666;rounded=1;" vertex="1" parent="418">
                    <mxGeometry y="26" width="162" height="30" as="geometry"/>
                </mxCell>
                <mxCell id="420" value="PK" style="shape=partialRectangle;top=0;left=0;bottom=0;fillColor=#f5f5f5;align=left;verticalAlign=middle;spacingLeft=4;spacingRight=4;overflow=hidden;rotatable=0;points=[];portConstraint=eastwest;part=1;fontSize=12;fontColor=#333333;strokeColor=#666666;rounded=1;" connectable="0" vertex="1" parent="419">
                    <mxGeometry width="30" height="30" as="geometry"/>
                </mxCell>
                <mxCell id="421" value="name" style="shape=partialRectangle;top=0;left=0;right=0;bottom=0;align=left;verticalAlign=top;fillColor=#f5f5f5;spacingLeft=34;spacingRight=4;overflow=hidden;rotatable=0;points=[[0,0.5],[1,0.5]];portConstraint=eastwest;dropTarget=0;fontSize=12;fontColor=#333333;strokeColor=#666666;rounded=1;" vertex="1" parent="418">
                    <mxGeometry y="56" width="162" height="26" as="geometry"/>
                </mxCell>
                <mxCell id="422" value="" style="shape=partialRectangle;top=0;left=0;bottom=0;fillColor=#f5f5f5;align=left;verticalAlign=top;spacingLeft=4;spacingRight=4;overflow=hidden;rotatable=0;points=[];portConstraint=eastwest;part=1;fontSize=12;fontColor=#333333;strokeColor=#666666;rounded=1;" connectable="0" vertex="1" parent="421">
                    <mxGeometry width="30" height="26" as="geometry"/>
                </mxCell>
                <mxCell id="423" value="description" style="shape=partialRectangle;top=0;left=0;right=0;bottom=0;align=left;verticalAlign=top;fillColor=#f5f5f5;spacingLeft=34;spacingRight=4;overflow=hidden;rotatable=0;points=[[0,0.5],[1,0.5]];portConstraint=eastwest;dropTarget=0;fontSize=12;fontColor=#333333;strokeColor=#666666;rounded=1;" vertex="1" parent="418">
                    <mxGeometry y="82" width="162" height="26" as="geometry"/>
                </mxCell>
                <mxCell id="424" value="" style="shape=partialRectangle;top=0;left=0;bottom=0;fillColor=#f5f5f5;align=left;verticalAlign=top;spacingLeft=4;spacingRight=4;overflow=hidden;rotatable=0;points=[];portConstraint=eastwest;part=1;fontSize=12;fontColor=#333333;strokeColor=#666666;rounded=1;" connectable="0" vertex="1" parent="423">
                    <mxGeometry width="30" height="26" as="geometry"/>
                </mxCell>
                <mxCell id="431" value="created_at" style="shape=partialRectangle;top=0;left=0;right=0;bottom=0;align=left;verticalAlign=top;fillColor=#f5f5f5;spacingLeft=34;spacingRight=4;overflow=hidden;rotatable=0;points=[[0,0.5],[1,0.5]];portConstraint=eastwest;dropTarget=0;fontSize=12;fontColor=#333333;strokeColor=#666666;rounded=1;" vertex="1" parent="418">
                    <mxGeometry y="108" width="162" height="26" as="geometry"/>
                </mxCell>
                <mxCell id="432" value="" style="shape=partialRectangle;top=0;left=0;bottom=0;fillColor=#f5f5f5;align=left;verticalAlign=top;spacingLeft=4;spacingRight=4;overflow=hidden;rotatable=0;points=[];portConstraint=eastwest;part=1;fontSize=12;fontColor=#333333;strokeColor=#666666;rounded=1;" connectable="0" vertex="1" parent="431">
                    <mxGeometry width="30" height="26" as="geometry"/>
                </mxCell>
                <mxCell id="433" value="updated_at" style="shape=partialRectangle;top=0;left=0;right=0;bottom=0;align=left;verticalAlign=top;fillColor=#f5f5f5;spacingLeft=34;spacingRight=4;overflow=hidden;rotatable=0;points=[[0,0.5],[1,0.5]];portConstraint=eastwest;dropTarget=0;fontSize=12;fontColor=#333333;strokeColor=#666666;rounded=1;" vertex="1" parent="418">
                    <mxGeometry y="134" width="162" height="26" as="geometry"/>
                </mxCell>
                <mxCell id="434" value="" style="shape=partialRectangle;top=0;left=0;bottom=0;fillColor=#f5f5f5;align=left;verticalAlign=top;spacingLeft=4;spacingRight=4;overflow=hidden;rotatable=0;points=[];portConstraint=eastwest;part=1;fontSize=12;fontColor=#333333;strokeColor=#666666;rounded=1;" connectable="0" vertex="1" parent="433">
                    <mxGeometry width="30" height="26" as="geometry"/>
                </mxCell>
                <mxCell id="435" value="service_client" style="swimlane;fontStyle=0;childLayout=stackLayout;horizontal=1;startSize=26;fillColor=#f5f5f5;horizontalStack=0;resizeParent=1;resizeParentMax=0;resizeLast=0;collapsible=1;marginBottom=0;swimlaneFillColor=#ffffff;align=center;fontSize=14;fontColor=#333333;strokeColor=#666666;rounded=1;" vertex="1" parent="zu2tDFOteG_yooguGcxT-1">
                    <mxGeometry x="1030" y="-845" width="162" height="130" as="geometry"/>
                </mxCell>
                <mxCell id="438" value="service_id" style="shape=partialRectangle;top=0;left=0;right=0;bottom=0;align=left;verticalAlign=top;fillColor=#f5f5f5;spacingLeft=34;spacingRight=4;overflow=hidden;rotatable=0;points=[[0,0.5],[1,0.5]];portConstraint=eastwest;dropTarget=0;fontSize=12;fontColor=#333333;strokeColor=#666666;rounded=1;" vertex="1" parent="435">
                    <mxGeometry y="26" width="162" height="26" as="geometry"/>
                </mxCell>
                <mxCell id="439" value="" style="shape=partialRectangle;top=0;left=0;bottom=0;fillColor=#f5f5f5;align=left;verticalAlign=top;spacingLeft=4;spacingRight=4;overflow=hidden;rotatable=0;points=[];portConstraint=eastwest;part=1;fontSize=12;fontColor=#333333;strokeColor=#666666;rounded=1;" connectable="0" vertex="1" parent="438">
                    <mxGeometry width="30" height="26" as="geometry"/>
                </mxCell>
                <mxCell id="440" value="client_id" style="shape=partialRectangle;top=0;left=0;right=0;bottom=0;align=left;verticalAlign=top;fillColor=#f5f5f5;spacingLeft=34;spacingRight=4;overflow=hidden;rotatable=0;points=[[0,0.5],[1,0.5]];portConstraint=eastwest;dropTarget=0;fontSize=12;fontColor=#333333;strokeColor=#666666;rounded=1;" vertex="1" parent="435">
                    <mxGeometry y="52" width="162" height="26" as="geometry"/>
                </mxCell>
                <mxCell id="441" value="" style="shape=partialRectangle;top=0;left=0;bottom=0;fillColor=#f5f5f5;align=left;verticalAlign=top;spacingLeft=4;spacingRight=4;overflow=hidden;rotatable=0;points=[];portConstraint=eastwest;part=1;fontSize=12;fontColor=#333333;strokeColor=#666666;rounded=1;" connectable="0" vertex="1" parent="440">
                    <mxGeometry width="30" height="26" as="geometry"/>
                </mxCell>
                <mxCell id="442" value="created_at" style="shape=partialRectangle;top=0;left=0;right=0;bottom=0;align=left;verticalAlign=top;fillColor=#f5f5f5;spacingLeft=34;spacingRight=4;overflow=hidden;rotatable=0;points=[[0,0.5],[1,0.5]];portConstraint=eastwest;dropTarget=0;fontSize=12;fontColor=#333333;strokeColor=#666666;rounded=1;" vertex="1" parent="435">
                    <mxGeometry y="78" width="162" height="26" as="geometry"/>
                </mxCell>
                <mxCell id="443" value="" style="shape=partialRectangle;top=0;left=0;bottom=0;fillColor=#f5f5f5;align=left;verticalAlign=top;spacingLeft=4;spacingRight=4;overflow=hidden;rotatable=0;points=[];portConstraint=eastwest;part=1;fontSize=12;fontColor=#333333;strokeColor=#666666;rounded=1;" connectable="0" vertex="1" parent="442">
                    <mxGeometry width="30" height="26" as="geometry"/>
                </mxCell>
                <mxCell id="444" value="updated_at" style="shape=partialRectangle;top=0;left=0;right=0;bottom=0;align=left;verticalAlign=top;fillColor=#f5f5f5;spacingLeft=34;spacingRight=4;overflow=hidden;rotatable=0;points=[[0,0.5],[1,0.5]];portConstraint=eastwest;dropTarget=0;fontSize=12;fontColor=#333333;strokeColor=#666666;rounded=1;" vertex="1" parent="435">
                    <mxGeometry y="104" width="162" height="26" as="geometry"/>
                </mxCell>
                <mxCell id="445" value="" style="shape=partialRectangle;top=0;left=0;bottom=0;fillColor=#f5f5f5;align=left;verticalAlign=top;spacingLeft=4;spacingRight=4;overflow=hidden;rotatable=0;points=[];portConstraint=eastwest;part=1;fontSize=12;fontColor=#333333;strokeColor=#666666;rounded=1;" connectable="0" vertex="1" parent="444">
                    <mxGeometry width="30" height="26" as="geometry"/>
                </mxCell>
                <mxCell id="446" style="edgeStyle=orthogonalEdgeStyle;orthogonalLoop=1;jettySize=auto;html=1;curved=1;" edge="1" parent="zu2tDFOteG_yooguGcxT-1" source="383" target="438">
                    <mxGeometry relative="1" as="geometry"/>
                </mxCell>
                <mxCell id="447" style="edgeStyle=orthogonalEdgeStyle;orthogonalLoop=1;jettySize=auto;html=1;curved=1;" edge="1" parent="zu2tDFOteG_yooguGcxT-1" source="419" target="440">
                    <mxGeometry relative="1" as="geometry"/>
                </mxCell>
                <mxCell id="448" value="portfolios" style="swimlane;fontStyle=0;childLayout=stackLayout;horizontal=1;startSize=26;fillColor=#f5f5f5;horizontalStack=0;resizeParent=1;resizeParentMax=0;resizeLast=0;collapsible=1;marginBottom=0;swimlaneFillColor=#ffffff;align=center;fontSize=14;fontColor=#333333;strokeColor=#666666;rounded=1;" vertex="1" parent="zu2tDFOteG_yooguGcxT-1">
                    <mxGeometry x="1260" y="-690" width="162" height="212" as="geometry"/>
                </mxCell>
                <mxCell id="449" value="id" style="shape=partialRectangle;top=0;left=0;right=0;bottom=1;align=left;verticalAlign=middle;fillColor=#f5f5f5;spacingLeft=34;spacingRight=4;overflow=hidden;rotatable=0;points=[[0,0.5],[1,0.5]];portConstraint=eastwest;dropTarget=0;fontStyle=5;fontSize=12;fontColor=#333333;strokeColor=#666666;rounded=1;" vertex="1" parent="448">
                    <mxGeometry y="26" width="162" height="30" as="geometry"/>
                </mxCell>
                <mxCell id="450" value="PK" style="shape=partialRectangle;top=0;left=0;bottom=0;fillColor=#f5f5f5;align=left;verticalAlign=middle;spacingLeft=4;spacingRight=4;overflow=hidden;rotatable=0;points=[];portConstraint=eastwest;part=1;fontSize=12;fontColor=#333333;strokeColor=#666666;rounded=1;" connectable="0" vertex="1" parent="449">
                    <mxGeometry width="30" height="30" as="geometry"/>
                </mxCell>
                <mxCell id="451" value="name" style="shape=partialRectangle;top=0;left=0;right=0;bottom=0;align=left;verticalAlign=top;fillColor=#f5f5f5;spacingLeft=34;spacingRight=4;overflow=hidden;rotatable=0;points=[[0,0.5],[1,0.5]];portConstraint=eastwest;dropTarget=0;fontSize=12;fontColor=#333333;strokeColor=#666666;rounded=1;" vertex="1" parent="448">
                    <mxGeometry y="56" width="162" height="26" as="geometry"/>
                </mxCell>
                <mxCell id="452" value="" style="shape=partialRectangle;top=0;left=0;bottom=0;fillColor=#f5f5f5;align=left;verticalAlign=top;spacingLeft=4;spacingRight=4;overflow=hidden;rotatable=0;points=[];portConstraint=eastwest;part=1;fontSize=12;fontColor=#333333;strokeColor=#666666;rounded=1;" connectable="0" vertex="1" parent="451">
                    <mxGeometry width="30" height="26" as="geometry"/>
                </mxCell>
                <mxCell id="453" value="description" style="shape=partialRectangle;top=0;left=0;right=0;bottom=0;align=left;verticalAlign=top;fillColor=#f5f5f5;spacingLeft=34;spacingRight=4;overflow=hidden;rotatable=0;points=[[0,0.5],[1,0.5]];portConstraint=eastwest;dropTarget=0;fontSize=12;fontColor=#333333;strokeColor=#666666;rounded=1;" vertex="1" parent="448">
                    <mxGeometry y="82" width="162" height="26" as="geometry"/>
                </mxCell>
                <mxCell id="454" value="" style="shape=partialRectangle;top=0;left=0;bottom=0;fillColor=#f5f5f5;align=left;verticalAlign=top;spacingLeft=4;spacingRight=4;overflow=hidden;rotatable=0;points=[];portConstraint=eastwest;part=1;fontSize=12;fontColor=#333333;strokeColor=#666666;rounded=1;" connectable="0" vertex="1" parent="453">
                    <mxGeometry width="30" height="26" as="geometry"/>
                </mxCell>
                <mxCell id="461" value="category" style="shape=partialRectangle;top=0;left=0;right=0;bottom=0;align=left;verticalAlign=top;fillColor=#f5f5f5;spacingLeft=34;spacingRight=4;overflow=hidden;rotatable=0;points=[[0,0.5],[1,0.5]];portConstraint=eastwest;dropTarget=0;fontSize=12;fontColor=#333333;strokeColor=#666666;rounded=1;" vertex="1" parent="448">
                    <mxGeometry y="108" width="162" height="26" as="geometry"/>
                </mxCell>
                <mxCell id="462" value="" style="shape=partialRectangle;top=0;left=0;bottom=0;fillColor=#f5f5f5;align=left;verticalAlign=top;spacingLeft=4;spacingRight=4;overflow=hidden;rotatable=0;points=[];portConstraint=eastwest;part=1;fontSize=12;fontColor=#333333;strokeColor=#666666;rounded=1;" connectable="0" vertex="1" parent="461">
                    <mxGeometry width="30" height="26" as="geometry"/>
                </mxCell>
                <mxCell id="459" value="location" style="shape=partialRectangle;top=0;left=0;right=0;bottom=0;align=left;verticalAlign=top;fillColor=#f5f5f5;spacingLeft=34;spacingRight=4;overflow=hidden;rotatable=0;points=[[0,0.5],[1,0.5]];portConstraint=eastwest;dropTarget=0;fontSize=12;fontColor=#333333;strokeColor=#666666;rounded=1;" vertex="1" parent="448">
                    <mxGeometry y="134" width="162" height="26" as="geometry"/>
                </mxCell>
                <mxCell id="460" value="" style="shape=partialRectangle;top=0;left=0;bottom=0;fillColor=#f5f5f5;align=left;verticalAlign=top;spacingLeft=4;spacingRight=4;overflow=hidden;rotatable=0;points=[];portConstraint=eastwest;part=1;fontSize=12;fontColor=#333333;strokeColor=#666666;rounded=1;" connectable="0" vertex="1" parent="459">
                    <mxGeometry width="30" height="26" as="geometry"/>
                </mxCell>
                <mxCell id="455" value="created_at" style="shape=partialRectangle;top=0;left=0;right=0;bottom=0;align=left;verticalAlign=top;fillColor=#f5f5f5;spacingLeft=34;spacingRight=4;overflow=hidden;rotatable=0;points=[[0,0.5],[1,0.5]];portConstraint=eastwest;dropTarget=0;fontSize=12;fontColor=#333333;strokeColor=#666666;rounded=1;" vertex="1" parent="448">
                    <mxGeometry y="160" width="162" height="26" as="geometry"/>
                </mxCell>
                <mxCell id="456" value="" style="shape=partialRectangle;top=0;left=0;bottom=0;fillColor=#f5f5f5;align=left;verticalAlign=top;spacingLeft=4;spacingRight=4;overflow=hidden;rotatable=0;points=[];portConstraint=eastwest;part=1;fontSize=12;fontColor=#333333;strokeColor=#666666;rounded=1;" connectable="0" vertex="1" parent="455">
                    <mxGeometry width="30" height="26" as="geometry"/>
                </mxCell>
                <mxCell id="457" value="updated_at" style="shape=partialRectangle;top=0;left=0;right=0;bottom=0;align=left;verticalAlign=top;fillColor=#f5f5f5;spacingLeft=34;spacingRight=4;overflow=hidden;rotatable=0;points=[[0,0.5],[1,0.5]];portConstraint=eastwest;dropTarget=0;fontSize=12;fontColor=#333333;strokeColor=#666666;rounded=1;" vertex="1" parent="448">
                    <mxGeometry y="186" width="162" height="26" as="geometry"/>
                </mxCell>
                <mxCell id="458" value="" style="shape=partialRectangle;top=0;left=0;bottom=0;fillColor=#f5f5f5;align=left;verticalAlign=top;spacingLeft=4;spacingRight=4;overflow=hidden;rotatable=0;points=[];portConstraint=eastwest;part=1;fontSize=12;fontColor=#333333;strokeColor=#666666;rounded=1;" connectable="0" vertex="1" parent="457">
                    <mxGeometry width="30" height="26" as="geometry"/>
                </mxCell>
                <mxCell id="463" value="service_portfolio" style="swimlane;fontStyle=0;childLayout=stackLayout;horizontal=1;startSize=26;fillColor=#f5f5f5;horizontalStack=0;resizeParent=1;resizeParentMax=0;resizeLast=0;collapsible=1;marginBottom=0;swimlaneFillColor=#ffffff;align=center;fontSize=14;fontColor=#333333;strokeColor=#666666;rounded=1;" vertex="1" parent="zu2tDFOteG_yooguGcxT-1">
                    <mxGeometry x="1030" y="-692" width="162" height="130" as="geometry"/>
                </mxCell>
                <mxCell id="464" value="service_id" style="shape=partialRectangle;top=0;left=0;right=0;bottom=0;align=left;verticalAlign=top;fillColor=#f5f5f5;spacingLeft=34;spacingRight=4;overflow=hidden;rotatable=0;points=[[0,0.5],[1,0.5]];portConstraint=eastwest;dropTarget=0;fontSize=12;fontColor=#333333;strokeColor=#666666;rounded=1;" vertex="1" parent="463">
                    <mxGeometry y="26" width="162" height="26" as="geometry"/>
                </mxCell>
                <mxCell id="465" value="" style="shape=partialRectangle;top=0;left=0;bottom=0;fillColor=#f5f5f5;align=left;verticalAlign=top;spacingLeft=4;spacingRight=4;overflow=hidden;rotatable=0;points=[];portConstraint=eastwest;part=1;fontSize=12;fontColor=#333333;strokeColor=#666666;rounded=1;" connectable="0" vertex="1" parent="464">
                    <mxGeometry width="30" height="26" as="geometry"/>
                </mxCell>
                <mxCell id="466" value="portfolio_id" style="shape=partialRectangle;top=0;left=0;right=0;bottom=0;align=left;verticalAlign=top;fillColor=#f5f5f5;spacingLeft=34;spacingRight=4;overflow=hidden;rotatable=0;points=[[0,0.5],[1,0.5]];portConstraint=eastwest;dropTarget=0;fontSize=12;fontColor=#333333;strokeColor=#666666;rounded=1;" vertex="1" parent="463">
                    <mxGeometry y="52" width="162" height="26" as="geometry"/>
                </mxCell>
                <mxCell id="467" value="" style="shape=partialRectangle;top=0;left=0;bottom=0;fillColor=#f5f5f5;align=left;verticalAlign=top;spacingLeft=4;spacingRight=4;overflow=hidden;rotatable=0;points=[];portConstraint=eastwest;part=1;fontSize=12;fontColor=#333333;strokeColor=#666666;rounded=1;" connectable="0" vertex="1" parent="466">
                    <mxGeometry width="30" height="26" as="geometry"/>
                </mxCell>
                <mxCell id="468" value="created_at" style="shape=partialRectangle;top=0;left=0;right=0;bottom=0;align=left;verticalAlign=top;fillColor=#f5f5f5;spacingLeft=34;spacingRight=4;overflow=hidden;rotatable=0;points=[[0,0.5],[1,0.5]];portConstraint=eastwest;dropTarget=0;fontSize=12;fontColor=#333333;strokeColor=#666666;rounded=1;" vertex="1" parent="463">
                    <mxGeometry y="78" width="162" height="26" as="geometry"/>
                </mxCell>
                <mxCell id="469" value="" style="shape=partialRectangle;top=0;left=0;bottom=0;fillColor=#f5f5f5;align=left;verticalAlign=top;spacingLeft=4;spacingRight=4;overflow=hidden;rotatable=0;points=[];portConstraint=eastwest;part=1;fontSize=12;fontColor=#333333;strokeColor=#666666;rounded=1;" connectable="0" vertex="1" parent="468">
                    <mxGeometry width="30" height="26" as="geometry"/>
                </mxCell>
                <mxCell id="470" value="updated_at" style="shape=partialRectangle;top=0;left=0;right=0;bottom=0;align=left;verticalAlign=top;fillColor=#f5f5f5;spacingLeft=34;spacingRight=4;overflow=hidden;rotatable=0;points=[[0,0.5],[1,0.5]];portConstraint=eastwest;dropTarget=0;fontSize=12;fontColor=#333333;strokeColor=#666666;rounded=1;" vertex="1" parent="463">
                    <mxGeometry y="104" width="162" height="26" as="geometry"/>
                </mxCell>
                <mxCell id="471" value="" style="shape=partialRectangle;top=0;left=0;bottom=0;fillColor=#f5f5f5;align=left;verticalAlign=top;spacingLeft=4;spacingRight=4;overflow=hidden;rotatable=0;points=[];portConstraint=eastwest;part=1;fontSize=12;fontColor=#333333;strokeColor=#666666;rounded=1;" connectable="0" vertex="1" parent="470">
                    <mxGeometry width="30" height="26" as="geometry"/>
                </mxCell>
                <mxCell id="472" style="edgeStyle=orthogonalEdgeStyle;curved=1;rounded=0;orthogonalLoop=1;jettySize=auto;html=1;entryX=0;entryY=0.5;entryDx=0;entryDy=0;" edge="1" parent="zu2tDFOteG_yooguGcxT-1" source="383" target="464">
                    <mxGeometry relative="1" as="geometry"/>
                </mxCell>
                <mxCell id="473" style="edgeStyle=orthogonalEdgeStyle;curved=1;rounded=0;orthogonalLoop=1;jettySize=auto;html=1;exitX=0;exitY=0.5;exitDx=0;exitDy=0;entryX=1;entryY=0.5;entryDx=0;entryDy=0;" edge="1" parent="zu2tDFOteG_yooguGcxT-1" source="449" target="466">
                    <mxGeometry relative="1" as="geometry"/>
                </mxCell>
            </root>
        </mxGraphModel>
    </diagram>
    <diagram id="ILsuDi99UKR0qeGbidP1" name="Order Unit">
        <mxGraphModel dx="1566" dy="561" grid="1" gridSize="10" guides="1" tooltips="1" connect="1" arrows="1" fold="1" page="1" pageScale="1" pageWidth="850" pageHeight="1100" math="0" shadow="0">
            <root>
                <mxCell id="vcM7IYLUsMrzzwx1DQUQ-0"/>
                <mxCell id="vcM7IYLUsMrzzwx1DQUQ-1" parent="vcM7IYLUsMrzzwx1DQUQ-0"/>
                <mxCell id="Ra9R6JAWBLz9rFR8-v49-3" value="Step 1&amp;nbsp;&lt;br&gt;Select location" style="rounded=1;whiteSpace=wrap;html=1;" parent="vcM7IYLUsMrzzwx1DQUQ-1" vertex="1">
                    <mxGeometry x="30" y="80" width="120" height="60" as="geometry"/>
                </mxCell>
                <mxCell id="Ra9R6JAWBLz9rFR8-v49-4" value="Step 2&lt;br&gt;Select Unit" style="rounded=1;whiteSpace=wrap;html=1;" parent="vcM7IYLUsMrzzwx1DQUQ-1" vertex="1">
                    <mxGeometry x="160" y="80" width="120" height="60" as="geometry"/>
                </mxCell>
                <mxCell id="Ra9R6JAWBLz9rFR8-v49-5" value="Step 3&amp;nbsp;&lt;br&gt;Select Insurance" style="rounded=1;whiteSpace=wrap;html=1;" parent="vcM7IYLUsMrzzwx1DQUQ-1" vertex="1">
                    <mxGeometry x="290" y="80" width="120" height="60" as="geometry"/>
                </mxCell>
                <mxCell id="Ra9R6JAWBLz9rFR8-v49-6" value="Step 4&amp;nbsp;&lt;br&gt;Is_packed_and_moving" style="rounded=1;whiteSpace=wrap;html=1;" parent="vcM7IYLUsMrzzwx1DQUQ-1" vertex="1">
                    <mxGeometry x="420" y="80" width="140" height="60" as="geometry"/>
                </mxCell>
                <mxCell id="Ra9R6JAWBLz9rFR8-v49-8" value="Step 5&lt;br&gt;Select Date" style="rounded=1;whiteSpace=wrap;html=1;" parent="vcM7IYLUsMrzzwx1DQUQ-1" vertex="1">
                    <mxGeometry x="570" y="80" width="120" height="60" as="geometry"/>
                </mxCell>
                <mxCell id="Ra9R6JAWBLz9rFR8-v49-9" value="Step 6&lt;br&gt;Select Payment" style="rounded=1;whiteSpace=wrap;html=1;" parent="vcM7IYLUsMrzzwx1DQUQ-1" vertex="1">
                    <mxGeometry x="700" y="80" width="120" height="60" as="geometry"/>
                </mxCell>
                <mxCell id="Ra9R6JAWBLz9rFR8-v49-0" value="Payment Flow in Ordering Unit" style="text;whiteSpace=wrap;html=1;align=center;verticalAlign=middle;fontStyle=1" parent="vcM7IYLUsMrzzwx1DQUQ-1" vertex="1">
                    <mxGeometry x="320" y="10" width="200" height="30" as="geometry"/>
                </mxCell>
            </root>
        </mxGraphModel>
    </diagram>
    <diagram id="qJ5WpqcXAYGiYcH5BDwA" name="Page-3">
        <mxGraphModel dx="1566" dy="561" grid="1" gridSize="10" guides="1" tooltips="1" connect="1" arrows="1" fold="1" page="1" pageScale="1" pageWidth="850" pageHeight="1100" math="0" shadow="0">
            <root>
                <mxCell id="vPlLT5pN4zHW__-pL-Tc-0"/>
                <mxCell id="vPlLT5pN4zHW__-pL-Tc-1" parent="vPlLT5pN4zHW__-pL-Tc-0"/>
                <mxCell id="9JlnYq2Dand_yF6pgm6V-21" value="eloquentAll" style="ellipse;whiteSpace=wrap;html=1;rounded=1;" parent="vPlLT5pN4zHW__-pL-Tc-1" vertex="1">
                    <mxGeometry x="730" y="110" width="120" height="60" as="geometry"/>
                </mxCell>
                <mxCell id="9JlnYq2Dand_yF6pgm6V-7" style="edgeStyle=orthogonalEdgeStyle;curved=1;rounded=0;orthogonalLoop=1;jettySize=auto;html=1;entryX=0.5;entryY=0;entryDx=0;entryDy=0;" parent="vPlLT5pN4zHW__-pL-Tc-1" source="9JlnYq2Dand_yF6pgm6V-0" target="9JlnYq2Dand_yF6pgm6V-1" edge="1">
                    <mxGeometry relative="1" as="geometry"/>
                </mxCell>
                <mxCell id="9JlnYq2Dand_yF6pgm6V-0" value="Controller" style="whiteSpace=wrap;html=1;rounded=1;" parent="vPlLT5pN4zHW__-pL-Tc-1" vertex="1">
                    <mxGeometry x="360" y="130" width="120" height="60" as="geometry"/>
                </mxCell>
                <mxCell id="9JlnYq2Dand_yF6pgm6V-14" style="edgeStyle=orthogonalEdgeStyle;curved=1;rounded=0;orthogonalLoop=1;jettySize=auto;html=1;entryX=0;entryY=0.5;entryDx=0;entryDy=0;" parent="vPlLT5pN4zHW__-pL-Tc-1" source="9JlnYq2Dand_yF6pgm6V-1" target="9JlnYq2Dand_yF6pgm6V-4" edge="1">
                    <mxGeometry relative="1" as="geometry">
                        <mxPoint x="290" y="360" as="targetPoint"/>
                    </mxGeometry>
                </mxCell>
                <mxCell id="9JlnYq2Dand_yF6pgm6V-28" style="edgeStyle=orthogonalEdgeStyle;curved=1;rounded=0;orthogonalLoop=1;jettySize=auto;html=1;" parent="vPlLT5pN4zHW__-pL-Tc-1" source="9JlnYq2Dand_yF6pgm6V-1" target="9JlnYq2Dand_yF6pgm6V-27" edge="1">
                    <mxGeometry relative="1" as="geometry"/>
                </mxCell>
                <mxCell id="9JlnYq2Dand_yF6pgm6V-1" value="RepositoryInterface" style="whiteSpace=wrap;html=1;rounded=1;" parent="vPlLT5pN4zHW__-pL-Tc-1" vertex="1">
                    <mxGeometry x="230" y="250" width="120" height="60" as="geometry"/>
                </mxCell>
                <mxCell id="9JlnYq2Dand_yF6pgm6V-2" value="CrudRepositoryInterface" style="whiteSpace=wrap;html=1;rounded=1;" parent="vPlLT5pN4zHW__-pL-Tc-1" vertex="1">
                    <mxGeometry x="520" y="250" width="150" height="60" as="geometry"/>
                </mxCell>
                <mxCell id="9JlnYq2Dand_yF6pgm6V-4" value="EloquentRepository" style="whiteSpace=wrap;html=1;rounded=1;" parent="vPlLT5pN4zHW__-pL-Tc-1" vertex="1">
                    <mxGeometry x="345" y="390" width="150" height="60" as="geometry"/>
                </mxCell>
                <mxCell id="9JlnYq2Dand_yF6pgm6V-8" style="edgeStyle=orthogonalEdgeStyle;curved=1;rounded=0;orthogonalLoop=1;jettySize=auto;html=1;entryX=0.5;entryY=0;entryDx=0;entryDy=0;" parent="vPlLT5pN4zHW__-pL-Tc-1" source="9JlnYq2Dand_yF6pgm6V-5" target="9JlnYq2Dand_yF6pgm6V-0" edge="1">
                    <mxGeometry relative="1" as="geometry"/>
                </mxCell>
                <mxCell id="9JlnYq2Dand_yF6pgm6V-5" value="Request" style="whiteSpace=wrap;html=1;rounded=1;" parent="vPlLT5pN4zHW__-pL-Tc-1" vertex="1">
                    <mxGeometry x="360" y="10" width="120" height="60" as="geometry"/>
                </mxCell>
                <mxCell id="9JlnYq2Dand_yF6pgm6V-17" value="eloquentCreate" style="ellipse;whiteSpace=wrap;html=1;rounded=1;" parent="vPlLT5pN4zHW__-pL-Tc-1" vertex="1">
                    <mxGeometry x="730" y="250" width="120" height="60" as="geometry"/>
                </mxCell>
                <mxCell id="9JlnYq2Dand_yF6pgm6V-18" value="eloquentUpdate" style="ellipse;whiteSpace=wrap;html=1;rounded=1;" parent="vPlLT5pN4zHW__-pL-Tc-1" vertex="1">
                    <mxGeometry x="730" y="320" width="120" height="60" as="geometry"/>
                </mxCell>
                <mxCell id="9JlnYq2Dand_yF6pgm6V-19" value="eloquentDelete" style="ellipse;whiteSpace=wrap;html=1;rounded=1;" parent="vPlLT5pN4zHW__-pL-Tc-1" vertex="1">
                    <mxGeometry x="730" y="390" width="120" height="60" as="geometry"/>
                </mxCell>
                <mxCell id="9JlnYq2Dand_yF6pgm6V-20" value="eloquentFind" style="ellipse;whiteSpace=wrap;html=1;rounded=1;" parent="vPlLT5pN4zHW__-pL-Tc-1" vertex="1">
                    <mxGeometry x="730" y="180" width="120" height="60" as="geometry"/>
                </mxCell>
                <mxCell id="9JlnYq2Dand_yF6pgm6V-22" value="create" style="ellipse;whiteSpace=wrap;html=1;rounded=1;" parent="vPlLT5pN4zHW__-pL-Tc-1" vertex="1">
                    <mxGeometry y="250" width="120" height="60" as="geometry"/>
                </mxCell>
                <mxCell id="9JlnYq2Dand_yF6pgm6V-23" value="update" style="ellipse;whiteSpace=wrap;html=1;rounded=1;" parent="vPlLT5pN4zHW__-pL-Tc-1" vertex="1">
                    <mxGeometry y="320" width="120" height="60" as="geometry"/>
                </mxCell>
                <mxCell id="9JlnYq2Dand_yF6pgm6V-24" value="destory" style="ellipse;whiteSpace=wrap;html=1;rounded=1;" parent="vPlLT5pN4zHW__-pL-Tc-1" vertex="1">
                    <mxGeometry y="390" width="120" height="60" as="geometry"/>
                </mxCell>
                <mxCell id="9JlnYq2Dand_yF6pgm6V-25" value="show" style="ellipse;whiteSpace=wrap;html=1;rounded=1;" parent="vPlLT5pN4zHW__-pL-Tc-1" vertex="1">
                    <mxGeometry y="180" width="120" height="60" as="geometry"/>
                </mxCell>
                <mxCell id="9JlnYq2Dand_yF6pgm6V-26" value="index" style="ellipse;whiteSpace=wrap;html=1;rounded=1;" parent="vPlLT5pN4zHW__-pL-Tc-1" vertex="1">
                    <mxGeometry y="110" width="120" height="60" as="geometry"/>
                </mxCell>
                <mxCell id="9JlnYq2Dand_yF6pgm6V-30" style="edgeStyle=orthogonalEdgeStyle;curved=1;rounded=0;orthogonalLoop=1;jettySize=auto;html=1;entryX=0;entryY=0.5;entryDx=0;entryDy=0;" parent="vPlLT5pN4zHW__-pL-Tc-1" source="9JlnYq2Dand_yF6pgm6V-27" target="9JlnYq2Dand_yF6pgm6V-2" edge="1">
                    <mxGeometry relative="1" as="geometry"/>
                </mxCell>
                <mxCell id="9JlnYq2Dand_yF6pgm6V-27" value="extend" style="shape=step;perimeter=stepPerimeter;whiteSpace=wrap;html=1;fixedSize=1;rounded=1;" parent="vPlLT5pN4zHW__-pL-Tc-1" vertex="1">
                    <mxGeometry x="390" y="260" width="90" height="40" as="geometry"/>
                </mxCell>
            </root>
        </mxGraphModel>
    </diagram>
</mxfile>
